<?xml version="1.0" encoding="utf-8" ?>
<svg baseProfile="full" height="50.0mm" version="1.1" viewBox="0,0,37.795275590551185,188.9763779527559" width="10.0mm" xmlns="http://www.w3.org/2000/svg" xmlns:ev="http://www.w3.org/2001/xml-events" xmlns:xlink="http://www.w3.org/1999/xlink"><defs /><path d="M19.94382095336914,27.789138793945312 L19.717735290527344,27.468008041381836 L19.276220321655273,27.02738380432129 L18.571678161621094,26.612960815429688 L17.584972381591797,26.437725067138672 L16.285036087036133,26.57689094543457 L14.709526062011719,27.060928344726562 L12.992181777954102,27.845857620239258 L11.363330841064453,28.871536254882812 L10.062807083129883,30.054107666015625 L9.262567520141602,31.307029724121094 L9.052315711975098,32.556068420410156 L9.455221176147461,33.74591827392578 L10.42708683013916,34.826133728027344 L11.885430335998535,35.77717971801758 L13.690686225891113,36.616233825683594 L15.639806747436523,37.384525299072266 L17.521516799926758,38.14535140991211 L19.168289184570312,38.950889587402344 L20.452117919921875,39.825950622558594 L21.32200050354004,40.77198791503906 L21.781204223632812,41.78306198120117 L21.825777053833008,42.81687927246094 L21.466859817504883,43.826072692871094 L20.71630096435547,44.75366973876953 L19.572166442871094,45.54908752441406 L18.036380767822266,46.16712951660156 L16.158220291137695,46.595882415771484 L14.016181945800781,46.8175048828125 L11.747419357299805,46.83088684082031 L9.541533470153809,46.650211334228516 L7.557898998260498,46.311981201171875 L5.929599761962891,45.84004211425781 L4.76192045211792,45.29114532470703 L4.089902400970459,44.725303649902344 L3.811175584793091,44.271202087402344 L3.7795276641845703,43.991111755371094 M32.49405288696289,39.10544204711914 L32.341270446777344,38.85374450683594 L32.065345764160156,38.46082305908203 L31.648540496826172,38.00438690185547 L31.073448181152344,37.62416076660156 L30.293180465698242,37.41572570800781 L29.291976928710938,37.4622688293457 L28.09757423400879,37.82168197631836 L26.788776397705078,38.53128433227539 L25.492454528808594,39.578155517578125 L24.32424545288086,40.883033752441406 L23.41900634765625,42.333892822265625 L22.89112663269043,43.79254913330078 L22.797088623046875,45.111141204833984 L23.14241600036621,46.16289520263672 L23.89366912841797,46.856651306152344 L24.96751594543457,47.12223815917969 L26.294286727905273,46.92716979980469 L27.8040771484375,46.27684020996094 L29.40110206604004,45.208961486816406 L30.983036041259766,43.812034606933594 L32.429447174072266,42.21583557128906 L33.620025634765625,40.59211730957031 L34.503379821777344,39.13307571411133 L35.07554244995117,37.98530578613281 L35.38731384277344,37.23804473876953 L35.504364013671875,36.92143249511719 L35.47972869873047,37.03759765625 L35.317405700683594,37.60299301147461 L35.043060302734375,38.62487030029297 L34.687744140625,40.01909637451172 L34.31422424316406,41.62987518310547 L34.03913879394531,43.245697021484375 L33.969207763671875,44.66203308105469 L34.1342887878418,45.739784240722656 L34.40695571899414,46.40998840332031 L34.65509033203125,46.72303771972656 M39.53129577636719,37.345611572265625 L39.53728485107422,37.321128845214844 L39.556297302246094,37.45857238769531 L39.57318115234375,37.91053771972656 L39.543121337890625,38.77239227294922 L39.404029846191406,39.97083282470703 L39.11799621582031,41.34514617919922 L38.70989227294922,42.69618606567383 L38.267295837402344,43.863155364990234 L37.89532470703125,44.74561309814453 L37.666603088378906,45.282535552978516 L37.59263610839844,45.41997528076172 L37.63417053222656,45.119136810302734 L37.771453857421875,44.34916687011719 L38.00884246826172,43.16560745239258 L38.37438201904297,41.710350036621094 L38.90708923339844,40.167877197265625 L39.62382507324219,38.71186828613281 L40.503746032714844,37.470401763916016 L41.51215362548828,36.50519561767578 L42.58293914794922,35.868900299072266 L43.6361083984375,35.60959243774414 L44.61712646484375,35.752647399902344 L45.477882385253906,36.300445556640625 L46.16796112060547,37.21929931640625 L46.63788604736328,38.427406311035156 L46.847259521484375,39.818119049072266 L46.78843688964844,41.243682861328125 L46.540687561035156,42.53498840332031 L46.22179412841797,43.56828308105469 L45.94609832763672,44.26068115234375 L45.785560607910156,44.55274963378906 L45.770179748535156,44.4312744140625 L45.90374755859375,43.87811279296875 L46.21172332763672,42.90924835205078 L46.72314453125,41.63096618652344 L47.460411071777344,40.1943359375 L48.41127014160156,38.74801254272461 L49.53363037109375,37.443416595458984 L50.75056457519531,36.388214111328125 L51.966156005859375,35.65638732910156 L53.08866882324219,35.31089782714844 L54.057373046875,35.37944793701172 L54.83129119873047,35.855499267578125 L55.40202331542969,36.70529556274414 L55.758453369140625,37.864601135253906 L55.88996124267578,39.232513427734375 L55.81000518798828,40.69765090942383 L55.58229064941406,42.14176940917969 L55.29864501953125,43.44499206542969 L55.0677490234375,44.50582504272461 L54.9361572265625,45.2139778137207 L54.893836975097656,45.575740814208984 M60.333404541015625,37.70802307128906 L60.36133575439453,37.76020050048828 L60.403953552246094,38.00918197631836 L60.433258056640625,38.59271240234375 L60.40082550048828,39.602073669433594 L60.261024475097656,41.03330612182617 L59.98670959472656,42.82773208618164 L59.588050842285156,44.893768310546875 L59.09822082519531,47.11384201049805 L58.56708526611328,49.33830261230469 L58.058448791503906,51.368900299072266 L57.62486267089844,53.02699661254883 L57.310768127441406,54.167640686035156 L57.129066467285156,54.725563049316406 L57.06675720214844,54.68754577636719 L57.10248565673828,54.07550811767578 L57.22801971435547,52.92174530029297 L57.43299102783203,51.33560562133789 L57.73157501220703,49.44541549682617 L58.13478088378906,47.40116882324219 L58.67610168457031,45.320167541503906 L59.39582061767578,43.2935905456543 L60.328086853027344,41.39231491088867 L61.46807861328125,39.71282196044922 L62.787498474121094,38.341758728027344 L64.22623443603516,37.362022399902344 L65.72344970703125,36.823326110839844 L67.21249389648438,36.75277328491211 L68.58783721923828,37.13142013549805 L69.71430206298828,37.90622329711914 L70.46149444580078,38.97447204589844 L70.73397064208984,40.20621871948242 L70.51543426513672,41.45490264892578 L69.8623046875,42.592613220214844 L68.8392562866211,43.501747131347656 L67.52252197265625,44.11677551269531 L66.01216125488281,44.41313934326172 L64.43716430664062,44.40190505981445 L62.97327423095703,44.10449981689453 L61.79450225830078,43.56840515136719 L61.057586669921875,42.795406341552734 L60.81214141845703,41.84148406982422 L61.014991760253906,40.79667663574219 L61.39794921875,39.92504119873047 L61.74085998535156,39.366302490234375 M74.76123046875,28.04806900024414 L74.77131652832031,28.09555435180664 L74.77161407470703,28.334238052368164 L74.7294692993164,28.889385223388672 L74.60971069335938,29.83223533630371 L74.3978500366211,31.13765525817871 L74.09135437011719,32.74872589111328 L73.7206802368164,34.58061218261719 L73.34986114501953,36.533912658691406 L73.0478286743164,38.504722595214844 L72.86054992675781,40.36445236206055 L72.81926727294922,41.99872970581055 L72.9186782836914,43.31732177734375 L73.15909576416016,44.2451171875 L73.55432891845703,44.71770477294922 L74.14927673339844,44.71025085449219 L74.95704650878906,44.228614807128906 L75.9677963256836,43.34372329711914 L77.12042236328125,42.17097473144531 L78.33448028564453,40.83592224121094 L79.52919006347656,39.444644927978516 L80.63603210449219,38.097816467285156 L81.56790924072266,36.87797546386719 L82.24095916748047,35.84876251220703 L82.57798767089844,35.06520462036133 L82.5087661743164,34.56727981567383 L82.00822448730469,34.38964080810547 L81.08073425292969,34.59469985961914 L79.79219055175781,35.223121643066406 L78.30731201171875,36.248779296875 L76.88465118408203,37.58120346069336 L75.79301452636719,39.07256317138672 L75.28206634521484,40.5546760559082 L75.48804473876953,41.88423156738281 L76.44412231445312,42.947166442871094 L78.06958770751953,43.67218780517578 L80.28407287597656,44.03599166870117 L82.86290740966797,44.08760070800781 L85.53742980957031,43.91889572143555 L87.68280792236328,43.6917724609375 L89.00684356689453,43.516136169433594 M113.02796173095703,28.760879516601562 L112.85211944580078,28.52082633972168 L112.50262451171875,28.181612014770508 L111.92393493652344,27.841989517211914 L111.10028076171875,27.6545467376709 L110.00376892089844,27.687931060791016 L108.66793823242188,27.98672103881836 L107.189208984375,28.554384231567383 L105.73406219482422,29.36603355407715 L104.47300720214844,30.353355407714844 L103.59751892089844,31.42489242553711 L103.25707244873047,32.49934387207031 L103.53421783447266,33.518775939941406 L104.43802642822266,34.465370178222656 L105.91609191894531,35.34815216064453 L107.8258056640625,36.192138671875 L109.9918212890625,37.022926330566406 L112.20187377929688,37.87223815917969 L114.2309341430664,38.755165100097656 L115.88404846191406,39.67899703979492 L117.03666687011719,40.63236618041992 L117.62503814697266,41.5865364074707 L117.62555694580078,42.49043273925781 L117.05601501464844,43.30175018310547 L115.93672180175781,43.96971893310547 L114.31253051757812,44.46373748779297 L112.28445434570312,44.760581970214844 L109.9951171875,44.85235595703125 L107.61151885986328,44.7386474609375 L105.3125,44.43511962890625 L103.24860382080078,43.964744567871094 L101.52909851074219,43.38805389404297 L100.28670501708984,42.72700119018555 L99.58735656738281,42.0168342590332 L99.43251037597656,41.288360595703125 L99.59423065185547,40.6910400390625 L99.84169006347656,40.30271911621094 M121.1239242553711,29.140426635742188 L121.16095733642578,29.469839096069336 L121.19860076904297,30.156831741333008 L121.19230651855469,31.241317749023438 L121.07403564453125,32.6439323425293 L120.82545471191406,34.28353500366211 L120.45034790039062,36.075225830078125 L120.00404357910156,37.92988204956055 L119.56211853027344,39.74009704589844 L119.19080352783203,41.387123107910156 L118.91548919677734,42.759620666503906 L118.75377655029297,43.79786682128906 L118.67312622070312,44.4117317199707 L118.64877319335938,44.5646858215332 L118.65851593017578,44.281005859375 L118.6799087524414,43.82171630859375 L118.69734954833984,43.41483688354492 M116.7809829711914,37.313690185546875 L116.9983139038086,37.275230407714844 L117.52149200439453,37.26286697387695 L118.43072509765625,37.31072235107422 L119.69984436035156,37.43634796142578 L121.23600769042969,37.60221481323242 L122.90380859375,37.761810302734375 L124.62171936035156,37.85249710083008 L126.30226135253906,37.84226989746094 L127.85881805419922,37.71820831298828 L129.0378875732422,37.55449676513672 L129.73910522460938,37.41706085205078 M129.91891479492188,35.664249420166016 L130.00250244140625,35.71128845214844 L130.1527099609375,35.8670768737793 L130.34352111816406,36.207759857177734 L130.5217742919922,36.793556213378906 L130.65098571777344,37.645816802978516 L130.74087524414062,38.71528244018555 L130.85072326660156,39.91381072998047 L131.05209350585938,41.129638671875 L131.39129638671875,42.242919921875 L131.89454650878906,43.16743087768555 L132.5301055908203,43.83334732055664 L133.29638671875,44.19062805175781 L134.21240234375,44.204864501953125 L135.28445434570312,43.855403900146484 L136.50674438476562,43.154510498046875 L137.84225463867188,42.17680358886719 L139.17938232421875,41.02779769897461 L140.4039306640625,39.85757827758789 L141.4105224609375,38.80483627319336 L142.13302612304688,37.95452880859375 L142.55560302734375,37.360877990722656 L142.67962646484375,37.05817413330078 L142.5039520263672,37.07124328613281 L142.01043701171875,37.456825256347656 L141.17677307128906,38.26353454589844 L140.0331573486328,39.47846221923828 L138.63131713867188,41.047176361083984 L137.05789184570312,42.89196014404297 L135.42108154296875,44.91978454589844 L133.83599853515625,47.0413818359375 L132.38990783691406,49.15846252441406 L131.18943786621094,51.13212203979492 L130.29183959960938,52.80320739746094 L129.72543334960938,54.05511474609375 L129.44476318359375,54.817352294921875 L129.360595703125,55.162132263183594 M147.89381408691406,30.443073272705078 L147.89071655273438,30.681909561157227 L147.8308868408203,31.213207244873047 L147.67279052734375,32.08468246459961 L147.3935546875,33.259708404541016 L147.02313232421875,34.6781005859375 L146.5964813232422,36.275428771972656 L146.16624450683594,37.99620056152344 L145.78045654296875,39.76630401611328 L145.4846954345703,41.484981536865234 L145.3201446533203,43.04924774169922 L145.3361053466797,44.366641998291016 L145.58062744140625,45.37782287597656 L146.11302185058594,46.04132843017578 L146.9724884033203,46.330780029296875 L148.16038513183594,46.23113250732422 L149.62396240234375,45.75516891479492 L151.25587463378906,44.95313262939453 L152.9136962890625,43.90083312988281 L154.45553588867188,42.69176483154297 L155.75115966796875,41.430973052978516 L156.7095489501953,40.2081298828125 L157.2971954345703,39.106658935546875 L157.50384521484375,38.19182586669922 L157.32127380371094,37.51832580566406 L156.74337768554688,37.152320861816406 L155.7798614501953,37.15061950683594 L154.50714111328125,37.55128479003906 L153.0963134765625,38.34724426269531 L151.75885009765625,39.462989807128906 L150.70469665527344,40.78839111328125 L150.09326171875,42.202857971191406 L150.04449462890625,43.58308410644531 L150.64599609375,44.82035446166992 L151.94512939453125,45.82353210449219 L153.8952178955078,46.527259826660156 L156.4281768798828,46.902313232421875 L159.4483642578125,46.955841064453125 L162.11854553222656,46.836917877197266 L163.94854736328125,46.678672790527344" fill="none" stroke="black" stroke-linecap="round" stroke-linejoin="round" stroke-miterlimit="2" stroke-width="2.0" /></svg>