<?xml version="1.0" encoding="utf-8" ?>
<svg baseProfile="full" height="50.0mm" version="1.1" viewBox="0,0,37.795275590551185,188.9763779527559" width="10.0mm" xmlns="http://www.w3.org/2000/svg" xmlns:ev="http://www.w3.org/2001/xml-events" xmlns:xlink="http://www.w3.org/1999/xlink"><defs /><path d="M3.804985284805298,43.99608612060547 L3.7795276641845703,43.949398040771484 L3.8505637645721436,43.933937072753906 L3.8972675800323486,43.89832305908203 M37.915672302246094,28.085912704467773 L37.82459259033203,27.876081466674805 L37.624610900878906,27.54719352722168 L37.28587341308594,27.158554077148438 L36.771263122558594,26.812271118164062 L36.0303955078125,26.558147430419922 L35.02137756347656,26.437725067138672 L33.73973846435547,26.488582611083984 L32.218711853027344,26.75096321105957 L30.563535690307617,27.238842010498047 L28.89889907836914,27.922901153564453 L27.395662307739258,28.759761810302734 L26.208942413330078,29.696725845336914 L25.4649600982666,30.703493118286133 L25.2353515625,31.7836856842041 L25.538280487060547,32.9182014465332 L26.33099365234375,34.071533203125 L27.56612777709961,35.21393585205078 L29.145565032958984,36.32866287231445 L30.928131103515625,37.4239501953125 L32.730377197265625,38.53879928588867 L34.35054016113281,39.666015625 L35.61029052734375,40.77839660644531 L36.42316436767578,41.845916748046875 L36.75872802734375,42.833404541015625 L36.62664794921875,43.71623992919922 L36.037681579589844,44.478355407714844 L34.99908447265625,45.077362060546875 L33.543006896972656,45.47944641113281 L31.76552391052246,45.675045013427734 L29.80685043334961,45.6671142578125 L27.832040786743164,45.49205780029297 L26.019935607910156,45.16986846923828 L24.521467208862305,44.728248596191406 L23.438005447387695,44.21152877807617 L22.80538558959961,43.763893127441406 L22.536333084106445,43.46661376953125 M48.42579650878906,39.55882263183594 L48.407752990722656,39.24280548095703 L48.34107208251953,38.73979949951172 L48.18902587890625,38.12611389160156 L47.90894317626953,37.55442810058594 L47.451690673828125,37.09026336669922 L46.794212341308594,36.81160354614258 L45.940162658691406,36.7688102722168 L44.916412353515625,37.038307189941406 L43.77574920654297,37.65877151489258 L42.58763122558594,38.636932373046875 L41.444923400878906,39.92108154296875 L40.47045135498047,41.397483825683594 L39.788047790527344,42.89391326904297 L39.50379180908203,44.247344970703125 L39.65106964111328,45.295406341552734 L40.19812774658203,45.93915939331055 L41.08287048339844,46.12346649169922 L42.238792419433594,45.82362365722656 L43.59960174560547,45.05695343017578 L45.09919738769531,43.919639587402344 L46.648277282714844,42.54685974121094 L48.11328887939453,41.12857437133789 L49.355865478515625,39.84600830078125 L50.27947235107422,38.823001861572266 L50.84881591796875,38.13172149658203 L51.08549499511719,37.82515335083008 L51.061622619628906,37.927337646484375 L50.83058166503906,38.47447204589844 L50.447288513183594,39.46645736694336 L49.98689270019531,40.78729248046875 L49.55548858642578,42.23196792602539 L49.25440216064453,43.569793701171875 L49.18080139160156,44.60148239135742 L49.388465881347656,45.221923828125 L49.89873504638672,45.4071044921875 L50.71473693847656,45.14228057861328 L51.828269958496094,44.43841552734375 L53.176429748535156,43.350257873535156 L54.673439025878906,42.00685501098633 L56.2152099609375,40.58937454223633 L57.68994903564453,39.28711700439453 L59.02397918701172,38.253639221191406 L60.16461181640625,37.594757080078125 L61.06016540527344,37.3665657043457 L61.669776916503906,37.61396408081055 L61.956932067871094,38.338829040527344 L61.89319610595703,39.47269821166992 L61.535614013671875,40.87001037597656 L61.007041931152344,42.31100082397461 L60.467384338378906,43.57387161254883 L60.05176544189453,44.51348114013672 L59.830909729003906,45.043800354003906 L59.8143310546875,45.129364013671875 L60.02549743652344,44.765777587890625 L60.521217346191406,43.9646110534668 L61.340721130371094,42.81462478637695 L62.468910217285156,41.49676513671875 L63.82282257080078,40.197383880615234 L65.2791976928711,39.07185363769531 L66.71665954589844,38.222957611083984 L68.06410217285156,37.69707489013672 L69.25611877441406,37.521942138671875 L70.24602508544922,37.72395324707031 L70.97930145263672,38.283592224121094 L71.40802001953125,39.14381408691406 L71.50039672851562,40.2225456237793 L71.29010772705078,41.408226013183594 L70.8626480102539,42.554481506347656 L70.36763000488281,43.54051208496094 L69.93736267089844,44.268592834472656 L69.65924072265625,44.678749084472656 L69.56271362304688,44.74622344970703 L69.66352844238281,44.45405197143555 L69.98363494873047,43.77314758300781 L70.57101440429688,42.75459671020508 L71.44364166259766,41.50910949707031 L72.56214904785156,40.18181610107422 L73.84306335449219,38.92085647583008 L75.17801666259766,37.833229064941406 L76.45942687988281,36.97974395751953 L77.5824966430664,36.40299987792969 L78.48750305175781,36.129615783691406 L79.11995697021484,36.17042922973633 L79.48117065429688,36.53635025024414 L79.58560943603516,37.21009826660156 L79.47830200195312,38.15614318847656 L79.19699096679688,39.27785873413086 L78.84043884277344,40.454925537109375 L78.48858642578125,41.563751220703125 L78.23182678222656,42.51277160644531 L78.12077331542969,43.241844177246094 L78.1957015991211,43.726234436035156 L78.46482849121094,43.9339714050293 L78.95169067382812,43.838584899902344 L79.66730499267578,43.43482971191406 L80.5930404663086,42.74237823486328 L81.67912292480469,41.82430648803711 L82.85636138916016,40.77098846435547 L84.02919006347656,39.68938064575195 L85.10974884033203,38.681182861328125 L86.03680419921875,37.84538269042969 L86.75337982177734,37.25358200073242 L87.2376480102539,36.95840072631836 L87.49695587158203,36.99034118652344 L87.54159545898438,37.383018493652344 L87.38644409179688,38.1551399230957 L87.05596160888672,39.31147003173828 L86.56897735595703,40.824951171875 L85.9609146118164,42.6300048828125 L85.28504943847656,44.629173278808594 L84.59355163574219,46.704063415527344 L83.92343139648438,48.71696472167969 L83.32657623291016,50.51661682128906 L82.8340835571289,51.966487884521484 L82.4752197265625,53.003456115722656 L82.25518798828125,53.617958068847656 L82.1713638305664,53.834129333496094 L82.20451354980469,53.67008972167969 L82.36304473876953,53.096229553222656 L82.6618423461914,52.07829284667969 L83.1321029663086,50.66761016845703 L83.76939392089844,48.965782165527344 L84.56942749023438,47.115482330322266 L85.5057373046875,45.248069763183594 L86.55677032470703,43.45439147949219 L87.7137680053711,41.806243896484375 L88.9655532836914,40.37233352661133 L90.27228546142578,39.22052764892578 L91.58564758300781,38.40483093261719 L92.8362808227539,37.95549011230469 L93.96556091308594,37.881500244140625 L94.91883087158203,38.16423416137695 L95.64678955078125,38.74756622314453 L96.09593963623047,39.560394287109375 L96.2129135131836,40.505157470703125 L95.97288513183594,41.477909088134766 L95.40443420410156,42.38539123535156 L94.56001281738281,43.12822723388672 L93.53712463378906,43.63584899902344 L92.43419647216797,43.867835998535156 L91.33939361572266,43.83041000366211 L90.3417739868164,43.57506561279297 L89.52106475830078,43.19585037231445 L88.92475891113281,42.77637481689453 L88.58110809326172,42.39511489868164 L88.46855926513672,42.09700012207031 L88.5498046875,41.91380310058594 L88.7945556640625,41.868221282958984 L89.20211029052734,41.968971252441406 L89.80896759033203,42.19542694091797 L90.66065979003906,42.4843635559082 L91.77629089355469,42.728546142578125 L93.15826416015625,42.795841217041016 L94.78509521484375,42.583152770996094 L96.61857604980469,42.02299499511719 L98.60906982421875,41.10513687133789 L100.67952728271484,39.868141174316406 L102.72220611572266,38.384117126464844 L104.62139892578125,36.73529815673828 L106.27444458007812,35.03743362426758 L107.5953598022461,33.408042907714844 L108.53791046142578,31.96243667602539 L109.09549713134766,30.786136627197266 L109.28215026855469,29.929584503173828 L109.12317657470703,29.422971725463867 L108.6526107788086,29.314878463745117 L107.8893051147461,29.664203643798828 L106.88233184814453,30.53191566467285 L105.72270965576172,31.90637969970703 L104.53093719482422,33.697486877441406 L103.44403076171875,35.74029541015625 L102.60118103027344,37.845191955566406 L102.10481262207031,39.82809829711914 L102.0372085571289,41.54859924316406 L102.44293212890625,42.89561080932617 L103.3162612915039,43.795875549316406 L104.60829162597656,44.21099090576172 L106.22431182861328,44.14112854003906 L108.03433990478516,43.627723693847656 L109.8908462524414,42.75028991699219 L111.64837646484375,41.62554168701172 L113.17363739013672,40.37645721435547 L114.36407470703125,39.133216857910156 L115.15632629394531,38.000511169433594 L115.52937316894531,37.063011169433594 L115.49752044677734,36.38138961791992 L115.10040283203125,36.0158576965332 L114.39561462402344,36.01221466064453 L113.45762634277344,36.40712356567383 L112.41121673583984,37.18829345703125 L111.41609191894531,38.29090881347656 L110.65821075439453,39.6032829284668 L110.30056762695312,40.98667526245117 L110.469482421875,42.30067825317383 L111.21240997314453,43.429954528808594 L112.60135650634766,44.251129150390625 L114.55211639404297,44.69873809814453 L116.86631774902344,44.7774658203125 L118.88041687011719,44.64717102050781 L120.20425415039062,44.470726013183594 M142.7831573486328,32.039031982421875 L142.79217529296875,31.738384246826172 L142.7290802001953,31.272571563720703 L142.5255889892578,30.7172794342041 L142.0966796875,30.210058212280273 L141.41152954101562,29.808359146118164 L140.45945739746094,29.568695068359375 L139.3022918701172,29.530574798583984 L138.02923583984375,29.72528839111328 L136.78762817382812,30.16320037841797 L135.6934814453125,30.814638137817383 L134.8636474609375,31.640613555908203 L134.36842346191406,32.598445892333984 L134.27342224121094,33.64029312133789 L134.6020050048828,34.713829040527344 L135.3582000732422,35.793575286865234 L136.45848083496094,36.84162521362305 L137.78660583496094,37.839080810546875 L139.1755828857422,38.78035354614258 L140.45687866210938,39.66204071044922 L141.4779052734375,40.486907958984375 L142.13661193847656,41.26991271972656 L142.3613739013672,42.01502227783203 L142.13491821289062,42.72795104980469 L141.48008728027344,43.39967346191406 L140.43310546875,43.9874267578125 L139.06703186035156,44.445369720458984 L137.49388122558594,44.7336540222168 L135.8446807861328,44.82225799560547 L134.2794952392578,44.72383117675781 L132.97640991210938,44.50870132446289 L132.00990295410156,44.244659423828125 L131.4793243408203,43.98896026611328 L131.40875244140625,43.76776885986328 L131.7449493408203,43.540504455566406 L132.2222900390625,43.33722686767578 L132.63873291015625,43.19251251220703 M150.0586700439453,31.58777618408203 L149.98776245117188,31.713293075561523 L149.84153747558594,32.04283905029297 L149.59640502929688,32.64400100708008 L149.2559051513672,33.52396774291992 L148.81735229492188,34.650062561035156 L148.27369689941406,35.97266387939453 L147.66294860839844,37.460750579833984 L147.0324249267578,39.05390548706055 L146.43528747558594,40.65907669067383 L145.9338836669922,42.158111572265625 L145.56797790527344,43.44901657104492 L145.35891723632812,44.39656448364258 L145.31497192382812,44.93096923828125 L145.40086364746094,45.0286865234375 L145.52960205078125,44.8690299987793 L145.6343231201172,44.641571044921875 M144.9398651123047,39.55168533325195 L144.98240661621094,39.49203872680664 L145.16810607910156,39.46026611328125 L145.59434509277344,39.482086181640625 L146.33360290527344,39.55159378051758 L147.37875366210938,39.57358169555664 L148.68043518066406,39.467498779296875 L150.1464080810547,39.182212829589844 L151.66207885742188,38.75128936767578 L153.0823211669922,38.2576904296875 L154.27767944335938,37.793453216552734 L155.12713623046875,37.434940338134766 L155.56625366210938,37.250667572021484 L155.5852508544922,37.29051971435547 L155.22537231445312,37.61730194091797 L154.55738830566406,38.27366638183594 L153.724853515625,39.20989990234375 L152.89724731445312,40.292381286621094 L152.25369262695312,41.35453796386719 L151.938232421875,42.24396896362305 L152.02743530273438,42.85900115966797 L152.52603149414062,43.14767837524414 L153.40216064453125,43.070770263671875 L154.5839080810547,42.62300109863281 L155.9599151611328,41.85905838012695 L157.38998413085938,40.90314865112305 L158.71109008789062,39.91651153564453 L159.77601623535156,39.05025100708008 L160.49835205078125,38.39391326904297 L160.86959838867188,38.00553512573242 L160.9120635986328,37.900726318359375 L160.67872619628906,38.111106872558594 L160.2154083251953,38.68550109863281 L159.55886840820312,39.641380310058594 L158.76817321777344,40.940216064453125 L157.9203338623047,42.52116394042969 L157.06893920898438,44.28624725341797 L156.26060485839844,46.15924835205078 L155.50218200683594,48.06835174560547 L154.7782745361328,49.9228515625 L154.064697265625,51.60013961791992 L153.35284423828125,52.98531723022461 L152.64822387695312,54.00127410888672 L151.96661376953125,54.628517150878906 L151.31533813476562,54.88836669921875 L150.70628356933594,54.823890686035156 L150.14434814453125,54.468711853027344 L149.6702880859375,53.86201858520508 L149.36607360839844,53.0591926574707 L149.32623291015625,52.11235046386719 L149.64559936523438,51.074317932128906 L150.38690185546875,49.97943878173828 L151.57174682617188,48.851470947265625 L153.1777801513672,47.710697174072266 L155.1445770263672,46.57740020751953 L157.38275146484375,45.45345687866211 L159.80035400390625,44.330406188964844 L162.29563903808594,43.181800842285156 L164.794921875,41.96894073486328 L167.2191925048828,40.65888595581055 L169.47991943359375,39.223365783691406 L171.48873901367188,37.655479431152344 L173.17359924316406,35.99066162109375 L174.468994140625,34.31378173828125 L175.35836791992188,32.7375602722168 L175.84678649902344,31.389938354492188 L175.97052001953125,30.363948822021484 L175.7594451904297,29.721797943115234 L175.24192810058594,29.496566772460938 L174.43089294433594,29.718246459960938 L173.36492919921875,30.40154266357422 L172.1273651123047,31.538158416748047 L170.8550262451172,33.06884765625 L169.6887664794922,34.882022857666016 L168.7637481689453,36.82317352294922 L168.16676330566406,38.72735595703125 L167.9551239013672,40.438232421875 L168.17141723632812,41.84772491455078 L168.80715942382812,42.886146545410156 L169.84011840820312,43.50946044921875 L171.2216033935547,43.697227478027344 L172.85678100585938,43.43904113769531 L174.63323974609375,42.75904083251953 L176.41847229003906,41.728294372558594 L178.04217529296875,40.46784210205078 L179.3653106689453,39.12157440185547 L180.2913360595703,37.83881378173828 L180.76829528808594,36.73662567138672 L180.79908752441406,35.901893615722656 L180.41195678710938,35.392921447753906 L179.64373779296875,35.2708740234375 L178.55368041992188,35.57575988769531 L177.26637268066406,36.310791015625 L175.96337890625,37.40611267089844 L174.8748016357422,38.73037338256836 L174.230712890625,40.136810302734375 L174.2016143798828,41.48720932006836 L174.8717803955078,42.657936096191406 L176.24105834960938,43.54619598388672 L178.2808074951172,44.025569915771484 L180.9529266357422,43.997867584228516 L183.43447875976562,43.688720703125 L185.1968536376953,43.32750701904297" fill="none" stroke="black" stroke-linecap="round" stroke-linejoin="round" stroke-miterlimit="2" stroke-width="2.0" /></svg>