<?xml version="1.0" encoding="utf-8" ?>
<svg baseProfile="full" height="50.0mm" version="1.1" viewBox="0,0,37.795275590551185,188.9763779527559" width="10.0mm" xmlns="http://www.w3.org/2000/svg" xmlns:ev="http://www.w3.org/2001/xml-events" xmlns:xlink="http://www.w3.org/1999/xlink"><defs /><path d="M22.260175704956055,27.35438346862793 L22.136058807373047,27.167896270751953 L21.85826873779297,26.907806396484375 L21.38973045349121,26.647207260131836 L20.73107147216797,26.48414421081543 L19.899526596069336,26.437725067138672 L18.917869567871094,26.513099670410156 L17.841472625732422,26.70866584777832 L16.724868774414062,27.035259246826172 L15.649499893188477,27.507186889648438 L14.688626289367676,28.11896324157715 L13.905020713806152,28.855178833007812 L13.324951171875,29.67616844177246 L12.98806381225586,30.554420471191406 L12.920502662658691,31.468303680419922 L13.158557891845703,32.41012191772461 L13.716957092285156,33.361202239990234 L14.588461875915527,34.30084228515625 L15.710623741149902,35.199275970458984 L17.013206481933594,36.05953598022461 L18.389015197753906,36.89302444458008 L19.737703323364258,37.728355407714844 L20.971506118774414,38.575416564941406 L22.037439346313477,39.43866729736328 L22.879180908203125,40.303985595703125 L23.471336364746094,41.16328430175781 L23.77292823791504,41.9970703125 L23.75946807861328,42.79801559448242 L23.413875579833984,43.55634307861328 L22.729238510131836,44.267696380615234 L21.722652435302734,44.9156494140625 L20.437971115112305,45.469970703125 L18.924285888671875,45.88927459716797 L17.251279830932617,46.14982604980469 L15.471922874450684,46.24951171875 L13.620810508728027,46.199825286865234 L11.75241470336914,46.02991485595703 L9.924113273620605,45.75944519042969 L8.209222793579102,45.41244125366211 L6.697441101074219,45.01251983642578 L5.472202301025391,44.58917236328125 L4.5911993980407715,44.17572784423828 L4.068324089050293,43.815757751464844 L3.834395170211792,43.560691833496094 L3.7795276641845703,43.424442291259766 M32.285945892333984,40.43769836425781 L32.13450622558594,40.24259948730469 L31.855571746826172,39.952171325683594 L31.445119857788086,39.636959075927734 L30.921098709106445,39.413352966308594 L30.282617568969727,39.328819274902344 L29.544517517089844,39.417259216308594 L28.745296478271484,39.70513916015625 L27.927610397338867,40.196876525878906 L27.152183532714844,40.88963317871094 L26.478511810302734,41.75910949707031 L25.979381561279297,42.74959182739258 L25.728580474853516,43.78782272338867 L25.792396545410156,44.806095123291016 L26.17304039001465,45.71189880371094 L26.84377670288086,46.436744689941406 L27.742551803588867,46.92429733276367 L28.786869049072266,47.13111877441406 L29.900875091552734,47.03932189941406 L31.016813278198242,46.64813232421875 L32.07089614868164,45.969078063964844 L33.00593566894531,45.06005859375 L33.77838897705078,44.00202178955078 L34.353782653808594,42.899444580078125 L34.722991943359375,41.866729736328125 L34.90757751464844,40.99032974243164 L34.96310806274414,40.32015609741211 L34.939971923828125,39.87225341796875 L34.89086151123047,39.63701629638672 L34.837127685546875,39.610984802246094 L34.78820037841797,39.81462097167969 L34.750465393066406,40.28256607055664 L34.74390411376953,41.01649475097656 L34.78343200683594,41.96302795410156 L34.88017654418945,43.03053283691406 L35.02464294433594,44.11485290527344 L35.216392517089844,45.133323669433594 L35.46049880981445,46.04651641845703 L35.75794219970703,46.817710876464844 L36.09623718261719,47.43584442138672 L36.464744567871094,47.864803314208984 L36.83491516113281,48.077701568603516 L37.193870544433594,48.07249450683594 L37.479957580566406,47.95420455932617 L37.6597900390625,47.8154296875 M40.258766174316406,38.80678939819336 L40.268470764160156,38.868858337402344 L40.29573059082031,39.08073806762695 L40.33417510986328,39.51689529418945 L40.36357116699219,40.2078857421875 L40.37858581542969,41.123802185058594 L40.36603546142578,42.19448471069336 L40.33345031738281,43.33866500854492 L40.308921813964844,44.463462829589844 L40.29331970214844,45.46401596069336 L40.2821044921875,46.257381439208984 L40.281471252441406,46.795623779296875 L40.276214599609375,47.05765914916992 L40.264198303222656,47.048240661621094 L40.256065368652344,46.759315490722656 L40.25895690917969,46.18167495727539 L40.30168151855469,45.34606170654297 L40.42078399658203,44.323081970214844 L40.631141662597656,43.191368103027344 L40.9515380859375,42.03599548339844 L41.398033142089844,40.91743087768555 L41.98841094970703,39.88420104980469 L42.725852966308594,38.991600036621094 L43.590721130371094,38.294212341308594 L44.534149169921875,37.832820892333984 L45.50092315673828,37.64350891113281 L46.43589782714844,37.737152099609375 L47.298500061035156,38.10322570800781 L48.05271911621094,38.71589660644531 L48.660484313964844,39.5294189453125 L49.09947204589844,40.48308563232422 L49.36101531982422,41.51142120361328 L49.44956970214844,42.53790283203125 L49.396942138671875,43.483184814453125 L49.26469421386719,44.28273010253906 L49.09834289550781,44.88521194458008 L48.951904296875,45.24742889404297 L48.859405517578125,45.335994720458984 L48.83049774169922,45.132511138916016 L48.88678741455078,44.63349151611328 L49.05986022949219,43.87104415893555 L49.35923767089844,42.913902282714844 L49.786903381347656,41.842445373535156 L50.33367156982422,40.74329376220703 L50.97015380859375,39.69940948486328 L51.69306182861328,38.777923583984375 L52.50200653076172,38.0294189453125 L53.38745880126953,37.49516677856445 L54.299964904785156,37.191993713378906 L55.19468688964844,37.132171630859375 L56.003578186035156,37.31886672973633 L56.68939208984375,37.75202178955078 L57.22529602050781,38.40247344970703 L57.606529235839844,39.22842025756836 L57.818756103515625,40.16608810424805 L57.88236999511719,41.15049362182617 L57.82084655761719,42.11835479736328 L57.6878662109375,43.029991149902344 L57.526084899902344,43.82643127441406 L57.381011962890625,44.47523498535156 L57.277259826660156,44.928977966308594 L57.216033935546875,45.16161346435547 L57.188819885253906,45.17927551269531 L57.184730529785156,45.08755874633789 L57.185211181640625,44.97228240966797 M62.161766052246094,39.97856521606445 L62.163963317871094,40.329280853271484 L62.16309356689453,40.9556770324707 L62.15045928955078,41.85191345214844 L62.09541320800781,42.930721282958984 L61.977134704589844,44.18512725830078 L61.790794372558594,45.59169387817383 L61.5455322265625,47.12451171875 L61.26240539550781,48.71491622924805 L60.972023010253906,50.289146423339844 L60.67474365234375,51.74726867675781 L60.394676208496094,53.00148010253906 L60.14656066894531,53.96471405029297 L59.94702911376953,54.5982666015625 L59.80561065673828,54.87940979003906 L59.726478576660156,54.81298828125 L59.69701385498047,54.396888732910156 L59.72560119628906,53.64576721191406 L59.811729431152344,52.58344268798828 L59.9715576171875,51.294273376464844 L60.20814514160156,49.854156494140625 L60.515960693359375,48.33232879638672 L60.8916015625,46.77391815185547 L61.33415985107422,45.21382141113281 L61.84613800048828,43.67847442626953 L62.448974609375,42.22589874267578 L63.15699768066406,40.906978607177734 L63.96598815917969,39.77080154418945 L64.86869049072266,38.856605529785156 L65.83969116210938,38.18341827392578 L66.8500747680664,37.75290298461914 L67.87881469726562,37.572914123535156 L68.8930892944336,37.646934509277344 L69.83350372314453,37.97929382324219 L70.64158630371094,38.55272674560547 L71.2535629272461,39.318077087402344 L71.62728881835938,40.20889663696289 L71.76970672607422,41.15394973754883 L71.68370819091797,42.086143493652344 L71.36357116699219,42.954750061035156 L70.81229400634766,43.7144775390625 L70.02066802978516,44.32898712158203 L69.0068588256836,44.779510498046875 L67.83211517333984,45.04644775390625 L66.5587158203125,45.12860107421875 L65.26702117919922,45.04767990112305 L64.06114196777344,44.84394073486328 L63.01970672607422,44.576446533203125 L62.23412322998047,44.285072326660156 L61.753562927246094,43.985633850097656 L61.575340270996094,43.68924331665039 L61.58721923828125,43.449867248535156 L61.674591064453125,43.294456481933594 M76.46772766113281,27.858549118041992 L76.45124816894531,28.167705535888672 L76.4387435913086,28.72580337524414 L76.43065643310547,29.538707733154297 L76.4092025756836,30.54796600341797 L76.35131072998047,31.772714614868164 L76.24308013916016,33.20912170410156 L76.07707977294922,34.847442626953125 L75.87374877929688,36.62227249145508 L75.65935516357422,38.453392028808594 L75.4490737915039,40.25231170654297 L75.27947235107422,41.95228576660156 L75.16649627685547,43.48698043823242 L75.10874938964844,44.80976486206055 L75.09307098388672,45.871849060058594 L75.10687255859375,46.64937973022461 L75.14014434814453,47.148521423339844 L75.21772003173828,47.4002799987793 L75.37252044677734,47.42301940917969 L75.65568542480469,47.227149963378906 L76.11163330078125,46.802703857421875 L76.77203369140625,46.15266418457031 L77.634765625,45.31603240966797 L78.66629791259766,44.36798858642578 L79.80786895751953,43.38251495361328 L80.99280548095703,42.41668701171875 L82.1524658203125,41.50748062133789 L83.23150634765625,40.6738395690918 L84.1623764038086,39.93314743041992 L84.88774108886719,39.31413269042969 L85.37236785888672,38.82856750488281 L85.60704040527344,38.46458435058594 L85.59969329833984,38.21122360229492 L85.37516784667969,38.058101654052734 L84.92988586425781,38.00922393798828 L84.27648162841797,38.08580780029297 L83.44253540039062,38.2900390625 L82.48458099365234,38.60921096801758 L81.47943878173828,39.032203674316406 L80.53301239013672,39.55260467529297 L79.72643280029297,40.17680740356445 L79.13548278808594,40.908329010009766 L78.79281616210938,41.72727966308594 L78.70316314697266,42.599388122558594 L78.87445831298828,43.485816955566406 L79.33641052246094,44.336402893066406 L80.1087417602539,45.10066223144531 L81.2137222290039,45.72723388671875 L82.61597442626953,46.17371368408203 L84.23886108398438,46.425296783447266 L85.99335479736328,46.5042724609375 L87.76468658447266,46.44938659667969 L89.42178344726562,46.2974853515625 L90.862060546875,46.07879638671875 L91.99878692626953,45.81267547607422 L92.8115005493164,45.52637481689453 L93.31993103027344,45.245948791503906 L93.56956481933594,45.00453186035156 L93.61237335205078,44.81159973144531 L93.55306243896484,44.68380355834961 L93.4693374633789,44.614654541015625 M120.80575561523438,29.589269638061523 L120.37848663330078,29.493488311767578 L119.6099853515625,29.40276336669922 L118.50498962402344,29.391803741455078 L117.1831283569336,29.542369842529297 L115.69621276855469,29.866718292236328 L114.13610076904297,30.35224723815918 L112.6275405883789,30.963165283203125 L111.3375473022461,31.662878036499023 L110.39602661132812,32.41023635864258 L109.89351654052734,33.16505432128906 L109.85707092285156,33.89962387084961 L110.27678680419922,34.59901428222656 L111.1337661743164,35.270668029785156 L112.39649963378906,35.92881393432617 L114.00341796875,36.60696792602539 L115.86669158935547,37.337493896484375 L117.85469055175781,38.14226531982422 L119.80464172363281,39.01411819458008 L121.55488586425781,39.93116760253906 L122.98082733154297,40.8534049987793 L124.01432800292969,41.761810302734375 L124.66100311279297,42.636619567871094 L124.94974517822266,43.46494674682617 L124.9253158569336,44.226051330566406 L124.59862518310547,44.89996337890625 L123.95820617675781,45.46244430541992 L122.97450256347656,45.903961181640625 L121.64737701416016,46.204872131347656 L120.00113677978516,46.370201110839844 L118.12806701660156,46.41013717651367 L116.13883972167969,46.346832275390625 L114.15886688232422,46.20576477050781 L112.27632141113281,46.001121520996094 L110.57840728759766,45.7386474609375 L109.10955047607422,45.44215393066406 L107.95872497558594,45.12297058105469 L107.19615936279297,44.801246643066406 L106.85692596435547,44.49901580810547 L106.80972290039062,44.265899658203125 L106.90392303466797,44.122947692871094 M129.2208709716797,29.5572452545166 L129.1792449951172,29.66785430908203 L129.13243103027344,29.95627212524414 L129.08987426757812,30.489999771118164 L129.05108642578125,31.29147720336914 L128.98211669921875,32.35227584838867 L128.8691864013672,33.6555061340332 L128.691650390625,35.15925979614258 L128.46640014648438,36.803340911865234 L128.2144012451172,38.51326370239258 L127.95868682861328,40.205318450927734 L127.729736328125,41.80728530883789 L127.54397583007812,43.258853912353516 L127.40399932861328,44.50098419189453 L127.3276138305664,45.49897766113281 L127.29964447021484,46.17026138305664 L127.30036926269531,46.527488708496094 M125.45435333251953,37.794612884521484 L125.4903793334961,37.78522491455078 L125.64176940917969,37.804107666015625 L125.99362182617188,37.867340087890625 L126.61003112792969,37.975868225097656 L127.51466369628906,38.11018371582031 L128.63848876953125,38.23084259033203 L129.8790740966797,38.30731201171875 L131.15887451171875,38.328956604003906 L132.38198852539062,38.2864990234375 L133.476318359375,38.18925094604492 L134.28701782226562,38.08827209472656 L134.75607299804688,38.01264953613281 M136.22137451171875,38.960426330566406 L136.206787109375,38.944923400878906 L136.17433166503906,38.98173141479492 L136.12767028808594,39.137969970703125 L136.08322143554688,39.475650787353516 L136.05642700195312,39.995933532714844 L136.07408142089844,40.661312103271484 L136.16952514648438,41.413448333740234 L136.3705596923828,42.173919677734375 L136.70648193359375,42.8721923828125 L137.19406127929688,43.4456787109375 L137.83193969726562,43.84369659423828 L138.6091766357422,44.01902770996094 L139.50765991210938,43.94637680053711 L140.49383544921875,43.61684799194336 L141.52859497070312,43.0493049621582 L142.55767822265625,42.29576873779297 L143.52476501464844,41.4672966003418 L144.3485107421875,40.6712646484375 L144.96188354492188,40.010704040527344 L145.341796875,39.53501892089844 L145.50222778320312,39.260501861572266 L145.48854064941406,39.18854522705078 L145.3531951904297,39.35649108886719 L145.08937072753906,39.804443359375 L144.6822967529297,40.565494537353516 L144.14501953125,41.60577392578125 L143.48587036132812,42.869564056396484 L142.76039123535156,44.28899002075195 L142.0275115966797,45.81755065917969 L141.30633544921875,47.413429260253906 L140.6181182861328,49.02602767944336 L139.98570251464844,50.57747268676758 L139.41015625,51.98679733276367 L138.93374633789062,53.18654251098633 L138.5869598388672,54.152671813964844 L138.39248657226562,54.825096130371094 L138.3522491455078,55.162132263183594 L138.4384765625,55.15675354003906 L138.5623779296875,54.96327209472656 L138.6655731201172,54.73735046386719 M148.83567810058594,29.774049758911133 L148.84848022460938,30.02382469177246 L148.86001586914062,30.51132583618164 L148.85549926757812,31.25322723388672 L148.82594299316406,32.206382751464844 L148.77487182617188,33.352481842041016 L148.7022247314453,34.64689254760742 L148.62229919433594,36.0537223815918 L148.55926513671875,37.51166915893555 L148.521728515625,38.95696258544922 L148.53683471679688,40.3421630859375 L148.59750366210938,41.61397933959961 L148.70155334472656,42.72789764404297 L148.8318328857422,43.65569305419922 L148.99185180664062,44.38933563232422 L149.1736297607422,44.94328308105469 L149.39915466308594,45.33601379394531 L149.65992736816406,45.562416076660156 L149.9882049560547,45.61238098144531 L150.4004669189453,45.47576141357422 L150.93280029296875,45.16576385498047 L151.60740661621094,44.71890640258789 L152.42002868652344,44.169219970703125 L153.32623291015625,43.54942321777344 L154.28115844726562,42.881195068359375 L155.22337341308594,42.182559967041016 L156.1002960205078,41.46077346801758 L156.87095642089844,40.73442459106445 L157.48812866210938,40.01801300048828 L157.92333984375,39.34213638305664 L158.16050720214844,38.736595153808594 L158.2001190185547,38.23778533935547 L158.05764770507812,37.85942840576172 L157.7423858642578,37.616817474365234 L157.26693725585938,37.52515411376953 L156.6435089111328,37.602664947509766 L155.89730834960938,37.865943908691406 L155.08547973632812,38.32251739501953 L154.2903594970703,38.941436767578125 L153.59878540039062,39.68122482299805 L153.1110076904297,40.496246337890625 L152.89617919921875,41.339378356933594 L153.0142364501953,42.17980194091797 L153.50950622558594,42.98294448852539 L154.38723754882812,43.698944091796875 L155.6255340576172,44.29034423828125 L157.1713104248047,44.729164123535156 L158.9267120361328,45.00648880004883 L160.79904174804688,45.136329650878906 L162.7170867919922,45.129825592041016 L164.27052307128906,45.055442810058594 L165.26588439941406,44.973060607910156" fill="none" stroke="black" stroke-linecap="round" stroke-linejoin="round" stroke-miterlimit="2" stroke-width="2.0" /></svg>