<?xml version="1.0" encoding="utf-8" ?>
<svg baseProfile="full" height="50.0mm" version="1.1" viewBox="0,0,37.795275590551185,188.9763779527559" width="10.0mm" xmlns="http://www.w3.org/2000/svg" xmlns:ev="http://www.w3.org/2001/xml-events" xmlns:xlink="http://www.w3.org/1999/xlink"><defs /><path d="M16.75320816040039,28.04084014892578 L16.496002197265625,27.704479217529297 L15.945423126220703,27.24822425842285 L15.050167083740234,26.824413299560547 L13.841516494750977,26.63193702697754 L12.393257141113281,26.717247009277344 L10.829010009765625,27.078899383544922 L9.327737808227539,27.674701690673828 L8.093709945678711,28.486841201782227 L7.329697132110596,29.484891891479492 L7.170654773712158,30.60590934753418 L7.687980651855469,31.780752182006836 L8.851503372192383,32.95873260498047 L10.546263694763184,34.10331344604492 L12.57463550567627,35.23521423339844 L14.689230918884277,36.37656784057617 L16.622844696044922,37.528221130371094 L18.167278289794922,38.668453216552734 L19.17888641357422,39.78921890258789 L19.576122283935547,40.86431121826172 L19.320804595947266,41.89801025390625 L18.409685134887695,42.86726379394531 L16.88711166381836,43.72106170654297 L14.88890266418457,44.37468338012695 L12.612499237060547,44.75990676879883 L10.28531265258789,44.82177734375 L8.1116361618042,44.553741455078125 L6.247745513916016,43.99089431762695 L4.848860263824463,43.17454147338867 L4.020878314971924,42.19697189331055 L3.7795276641845703,41.17162322998047 L3.90205717086792,40.344566345214844 L4.139135360717773,39.83283615112305 M29.21567153930664,36.41737365722656 L28.975309371948242,36.11552047729492 L28.478609085083008,35.65599060058594 L27.674636840820312,35.168724060058594 L26.605026245117188,34.8770637512207 L25.294525146484375,34.92411804199219 L23.815488815307617,35.40001678466797 L22.303375244140625,36.307411193847656 L20.94599151611328,37.58606719970703 L19.92823028564453,39.09927749633789 L19.41950798034668,40.646305084228516 L19.458126068115234,42.005523681640625 L19.996074676513672,42.983909606933594 L20.937362670898438,43.4441032409668 L22.179460525512695,43.325374603271484 L23.611034393310547,42.6363639831543 L25.131031036376953,41.45351791381836 L26.61534881591797,39.91895294189453 L27.919137954711914,38.24169158935547 L28.934701919555664,36.65403366088867 L29.60500144958496,35.34019470214844 L29.946575164794922,34.42413330078125 L30.035459518432617,33.97560501098633 L29.97850799560547,34.036109924316406 L29.85167694091797,34.63821029663086 L29.72324562072754,35.791412353515625 L29.628366470336914,37.39769744873047 L29.61097526550293,39.27183151245117 L29.764009475708008,41.15122985839844 L30.143232345581055,42.77489471435547 L30.747697830200195,43.952850341796875 L31.3599853515625,44.6339225769043 L31.806903839111328,44.913246154785156 M36.383392333984375,33.60877990722656 L36.40592956542969,34.064979553222656 L36.431427001953125,34.974700927734375 L36.45294952392578,36.35077667236328 L36.44469451904297,38.0246696472168 L36.40648651123047,39.7899284362793 L36.36235809326172,41.410457611083984 L36.33003234863281,42.68907165527344 L36.33983612060547,43.48868179321289 L36.433013916015625,43.729434967041016 L36.627532958984375,43.37970733642578 L36.94132995605469,42.43204879760742 L37.398529052734375,40.95489501953125 L38.001258850097656,39.1224365234375 L38.760093688964844,37.17772674560547 L39.666221618652344,35.36787414550781 L40.675575256347656,33.889495849609375 L41.698020935058594,32.86079788208008 L42.66981506347656,32.3492431640625 L43.52696228027344,32.393516540527344 L44.216453552246094,33.00741195678711 L44.70933532714844,34.14707946777344 L44.95684814453125,35.6868896484375 L44.95374298095703,37.45848083496094 L44.77082061767578,39.22406768798828 L44.50902557373047,40.75356674194336 L44.258338928222656,41.88794708251953 L44.11460876464844,42.52865219116211 L44.083778381347656,42.60557174682617 L44.196746826171875,42.12124252319336 L44.48517608642578,41.08642578125 L44.98713684082031,39.60673522949219 L45.711997985839844,37.884456634521484 L46.67725372314453,36.16535949707031 L47.808616638183594,34.652137756347656 L49.02406311035156,33.5002326965332 L50.22089385986328,32.79372787475586 L51.31590270996094,32.59004211425781 L52.22930145263672,32.92304611206055 L52.92627716064453,33.77963638305664 L53.35791015625,35.131893157958984 L53.53562927246094,36.836997985839844 L53.51580810546875,38.68787384033203 L53.41571807861328,40.211936950683594 L53.322242736816406,41.16762161254883 M59.253257751464844,33.645931243896484 L59.296112060546875,33.9150276184082 L59.33557891845703,34.563507080078125 L59.325347900390625,35.719207763671875 L59.20416259765625,37.418670654296875 L58.96089172363281,39.650272369384766 L58.61101531982422,42.30277633666992 L58.18711853027344,45.19476318359375 L57.754859924316406,48.10344696044922 L57.381080627441406,50.75117492675781 L57.11180114746094,52.910064697265625 L56.98065948486328,54.415283203125 L56.966514587402344,55.162132263183594 L57.01185607910156,55.108856201171875 L57.07964324951172,54.27629089355469 L57.17316436767578,52.719749450683594 L57.31975555419922,50.60588073730469 L57.570892333984375,48.136497497558594 L57.96196746826172,45.517173767089844 L58.49974822998047,42.90849304199219 L59.18968200683594,40.428977966308594 L60.064781188964844,38.17722702026367 L61.131935119628906,36.271751403808594 L62.38636779785156,34.81752395629883 L63.78582000732422,33.90199661254883 L65.24125671386719,33.568702697753906 L66.63567352294922,33.8164176940918 L67.85972595214844,34.603736877441406 L68.7893295288086,35.821475982666016 L69.32357788085938,37.31756591796875 L69.39661407470703,38.91480255126953 L69.00225830078125,40.45346450805664 L68.14160919189453,41.76866912841797 L66.91796112060547,42.73646545410156 L65.50713348388672,43.29487609863281 L64.30883026123047,43.516780853271484 L63.54188537597656,43.534828186035156 M74.47613525390625,28.398334503173828 L74.40877532958984,28.963537216186523 L74.28596496582031,30.04485321044922 L74.11139678955078,31.63596534729004 L73.90445709228516,33.550453186035156 L73.69083404541016,35.651206970214844 L73.51872253417969,37.799407958984375 L73.43560028076172,39.87329864501953 L73.5357437133789,41.71137619018555 L73.87069702148438,43.147796630859375 L74.42061614990234,44.05926513671875 L74.9773941040039,44.488067626953125 L75.38494873046875,44.59303283691406 M78.48988342285156,39.85500717163086 L78.85081481933594,39.646156311035156 L79.55795288085938,39.20789337158203 L80.60033416748047,38.504886627197266 L81.82439422607422,37.5771598815918 L83.05899047851562,36.50077819824219 L84.12303924560547,35.37895202636719 L84.87934875488281,34.33776092529297 L85.24027252197266,33.4832763671875 L85.1640396118164,32.913211822509766 L84.64570617675781,32.70081329345703 L83.7015380859375,32.914512634277344 L82.4047622680664,33.590354919433594 L80.92207336425781,34.71769714355469 L79.49788665771484,36.19855499267578 L78.38939666748047,37.89744186401367 L77.96011352539062,39.633907318115234 L78.3994369506836,41.21404266357422 L79.69200897216797,42.485076904296875 L81.18964385986328,43.314971923828125 L82.36492919921875,43.72175598144531 M109.74930572509766,28.589914321899414 L109.46295166015625,28.215396881103516 L108.83845520019531,27.675710678100586 L107.79825592041016,27.13501739501953 L106.36305236816406,26.83482551574707 L104.60638427734375,26.871408462524414 L102.69165802001953,27.260330200195312 L100.84884643554688,27.934476852416992 L99.35523223876953,28.82239532470703 L98.47891235351562,29.85892105102539 L98.3909683227539,30.983383178710938 L99.15250396728516,32.163204193115234 L100.6866683959961,33.3770866394043 L102.7909927368164,34.62499237060547 L105.18771362304688,35.91568374633789 L107.5738525390625,37.24484634399414 L109.6541519165039,38.562164306640625 L111.21627044677734,39.7972412109375 L112.13890075683594,40.88109588623047 L112.36844635009766,41.78680419921875 L111.90203857421875,42.51519012451172 L110.74752807617188,43.076080322265625 L108.94596862792969,43.456199645996094 L106.62670135498047,43.64801025390625 L104.01268005371094,43.64354705810547 L101.3836441040039,43.454036712646484 L99.02201843261719,43.10203552246094 L97.11186218261719,42.625221252441406 L95.84302520751953,41.98915481567383 L95.31494903564453,41.20405960083008 L95.51683044433594,40.291282653808594 L96.06658172607422,39.485252380371094 L96.61531066894531,38.937828063964844 M117.21739959716797,26.437725067138672 L117.24065399169922,26.794889450073242 L117.2723388671875,27.520727157592773 L117.31597137451172,28.6583251953125 L117.3675537109375,30.143299102783203 L117.43457794189453,31.92864227294922 L117.51587677001953,33.95936584472656 L117.61649322509766,36.149757385253906 L117.74266815185547,38.36415100097656 L117.9078598022461,40.405616760253906 L118.11226654052734,42.084007263183594 L118.30131530761719,43.202720642089844 L118.43165588378906,43.77399826049805 M113.08924102783203,35.03929901123047 L113.3542709350586,34.99217224121094 L114.00093841552734,34.924442291259766 L115.11946868896484,34.85816192626953 L116.70472717285156,34.82600021362305 L118.60828399658203,34.84001159667969 L120.59689331054688,34.8912467956543 L122.19498443603516,34.94822692871094 L123.17955017089844,34.98955154418945 M125.69300842285156,34.552066802978516 L125.84107208251953,34.805511474609375 L126.15254974365234,35.31843185424805 L126.64834594726562,36.12484359741211 L127.28131103515625,37.144744873046875 L128.00341796875,38.30000305175781 L128.76800537109375,39.469966888427734 L129.54640197753906,40.555946350097656 L130.376953125,41.39265060424805 L131.28138732910156,41.86738204956055 L132.2326202392578,41.906959533691406 L133.02520751953125,41.694976806640625 L133.5387420654297,41.425933837890625 M136.91261291503906,36.42268371582031 L136.85971069335938,36.485748291015625 L136.6267852783203,36.766937255859375 L136.0711669921875,37.4433479309082 L135.07693481445312,38.63357925415039 L133.62855529785156,40.355690002441406 L131.84304809570312,42.51895523071289 L129.90252685546875,44.96546936035156 L128.0848846435547,47.389732360839844 L126.64421081542969,49.46991729736328 L125.73101806640625,50.93022537231445 L125.30514526367188,51.712554931640625 L125.21332550048828,51.97337341308594 M141.49249267578125,28.71718978881836 L141.54318237304688,28.902538299560547 L141.5579376220703,29.414384841918945 L141.4694366455078,30.369047164916992 L141.2198944091797,31.773330688476562 L140.82681274414062,33.53866958618164 L140.35513305664062,35.5424690246582 L139.91683959960938,37.64362335205078 L139.66177368164062,39.674442291259766 L139.7012939453125,41.44611358642578 L140.05917358398438,42.7974853515625 L140.5231170654297,43.626373291015625 L140.90296936035156,44.00463104248047 M143.97573852539062,40.999656677246094 L144.38653564453125,40.900054931640625 L145.2081298828125,40.609561920166016 L146.42706298828125,40.059844970703125 L147.84857177734375,39.24436950683594 L149.26841735839844,38.2479248046875 L150.51441955566406,37.17966079711914 L151.48394775390625,36.154422760009766 L152.11119079589844,35.2538948059082 L152.34176635742188,34.54285430908203 L152.12564086914062,34.08485794067383 L151.44619750976562,33.96984100341797 L150.3443145751953,34.26984405517578 L148.9542236328125,35.02798080444336 L147.48548889160156,36.20366668701172 L146.17987060546875,37.675254821777344 L145.29718017578125,39.292877197265625 L145.03854370117188,40.90234375 L145.530029296875,42.3551139831543 L146.78652954101562,43.548221588134766 L148.8116912841797,44.36316680908203 L151.58432006835938,44.700008392333984 L154.21360778808594,44.70227813720703 L156.10943603515625,44.55094909667969" fill="none" stroke="black" stroke-linecap="round" stroke-linejoin="round" stroke-miterlimit="2" stroke-width="2.0" /></svg>