<?xml version="1.0" encoding="utf-8" ?>
<svg baseProfile="full" height="50.0mm" version="1.1" viewBox="0,0,37.795275590551185,188.9763779527559" width="10.0mm" xmlns="http://www.w3.org/2000/svg" xmlns:ev="http://www.w3.org/2001/xml-events" xmlns:xlink="http://www.w3.org/1999/xlink"><defs /><path d="M16.2867431640625,27.67658805847168 L16.103527069091797,27.380094528198242 L15.690187454223633,26.97690200805664 L14.958136558532715,26.596416473388672 L13.889253616333008,26.437725067138672 L12.512722969055176,26.5660400390625 L10.968158721923828,26.994089126586914 L9.494461059570312,27.695894241333008 L8.33241081237793,28.63515853881836 L7.6746931076049805,29.748947143554688 L7.626237869262695,30.987995147705078 L8.205024719238281,32.31269836425781 L9.356782913208008,33.69106674194336 L10.969959259033203,35.121826171875 L12.836167335510254,36.5977783203125 L14.696188926696777,38.073177337646484 L16.28573226928711,39.481781005859375 L17.40797233581543,40.76451110839844 L17.93876075744629,41.861968994140625 L17.824241638183594,42.750823974609375 L17.054004669189453,43.426795959472656 L15.663541793823242,43.86840057373047 L13.7728853225708,44.05750274658203 L11.570594787597656,43.99756622314453 L9.291133880615234,43.68243408203125 L7.190535068511963,43.162559509277344 L5.480809688568115,42.535011291503906 L4.34816312789917,41.991085052490234 L3.7795276641845703,41.64122772216797 M22.56317901611328,37.602569580078125 L22.435909271240234,37.46345138549805 L22.152231216430664,37.30018615722656 L21.644559860229492,37.22023391723633 L20.900285720825195,37.375118255615234 L19.966825485229492,37.851036071777344 L18.954727172851562,38.65415954589844 L18.043367385864258,39.70888900756836 L17.38964080810547,40.900794982910156 L17.084583282470703,42.08642578125 L17.1502685546875,43.133094787597656 L17.56686019897461,43.934505462646484 L18.29489517211914,44.39215087890625 L19.28490447998047,44.417137145996094 L20.460866928100586,43.959434509277344 L21.737266540527344,43.01792907714844 L23.000568389892578,41.675445556640625 L24.131925582885742,40.0908203125 L25.03919792175293,38.490936279296875 L25.65787124633789,37.08219909667969 L26.00782012939453,36.01708221435547 L26.13866424560547,35.360111236572266 L26.114368438720703,35.14476013183594 L25.984020233154297,35.36932373046875 L25.783565521240234,36.05387878417969 L25.5650577545166,37.15369415283203 L25.4270076751709,38.53438186645508 L25.43890380859375,39.9918327331543 L25.646547317504883,41.33082580566406 L26.05779266357422,42.38837432861328 L26.639381408691406,43.06226348876953 L27.383861541748047,43.28050231933594 L28.290569305419922,42.986412048339844 L29.341697692871094,42.184322357177734 L30.48607063293457,40.978912353515625 L31.625282287597656,39.583335876464844 L32.613338470458984,38.25468063354492 L33.35999298095703,37.19871520996094 L33.819114685058594,36.533138275146484 L34.003700256347656,36.29258346557617 L33.968727111816406,36.4795036315918 L33.772438049316406,37.099273681640625 L33.47154998779297,38.12924575805664 L33.16632080078125,39.41393280029297 L32.94261932373047,40.74862289428711 L32.8453483581543,41.91011047363281 L32.89093017578125,42.72755432128906 L33.0832405090332,43.108245849609375 L33.43289566040039,43.01622772216797 L33.99688720703125,42.41600799560547 L34.7917594909668,41.365631103515625 L35.765525817871094,40.017127990722656 L36.83319091796875,38.6044807434082 L37.881492614746094,37.35327911376953 L38.80657196044922,36.425567626953125 L39.57897186279297,35.90085220336914 L40.166114807128906,35.80720901489258 L40.551849365234375,36.13628005981445 L40.757057189941406,36.875370025634766 L40.79728698730469,37.93381118774414 L40.715721130371094,39.15784454345703 L40.59501647949219,40.360355377197266 L40.48902130126953,41.37361145019531 L40.45802307128906,42.0620002746582 L40.55281066894531,42.35315704345703 L40.81464385986328,42.204288482666016 L41.2767333984375,41.613922119140625 L41.94151306152344,40.64034652709961 L42.758453369140625,39.444007873535156 L43.66230010986328,38.23628616333008 L44.548187255859375,37.19576644897461 L45.331207275390625,36.43054962158203 L45.946197509765625,36.00408172607422 L46.35218048095703,35.9422607421875 L46.54857635498047,36.27505111694336 L46.57476043701172,37.01819610595703 L46.4840087890625,38.102439880371094 L46.353858947753906,39.369171142578125 L46.28971862792969,40.696895599365234 L46.294532775878906,41.761322021484375 L46.344512939453125,42.42139434814453 M52.351722717285156,38.251976013183594 L52.32929229736328,38.217742919921875 L52.28447723388672,38.30917739868164 L52.20518493652344,38.677120208740234 L52.09297180175781,39.47742462158203 L51.94841003417969,40.74821472167969 L51.76097869873047,42.468841552734375 L51.52855682373047,44.542808532714844 L51.260841369628906,46.82927703857422 L50.967445373535156,49.121788024902344 L50.69752502441406,51.208946228027344 L50.492156982421875,52.90550231933594 L50.371604919433594,54.090187072753906 L50.3250732421875,54.67770767211914 L50.32416534423828,54.63810729980469 L50.33855438232422,53.93693542480469 L50.3924560546875,52.585147857666016 L50.538490295410156,50.69913101196289 L50.84071350097656,48.456085205078125 L51.342498779296875,46.044349670410156 L52.06220245361328,43.6509895324707 L52.982521057128906,41.42138671875 L54.07788848876953,39.46861267089844 L55.30491638183594,37.90631103515625 L56.581932067871094,36.82912826538086 L57.816551208496094,36.30913162231445 L58.889381408691406,36.36054229736328 L59.68628692626953,36.92912673950195 L60.13484191894531,37.90835952758789 L60.194725036621094,39.139671325683594 L59.854454040527344,40.46076202392578 L59.16242980957031,41.74839782714844 L58.154685974121094,42.87086486816406 L56.93560028076172,43.717323303222656 L55.6646728515625,44.245506286621094 L54.645408630371094,44.48830032348633 L54.02104949951172,44.54315185546875 M62.98442077636719,37.65382385253906 L63.42028045654297,37.443115234375 L64.21054077148438,36.95726776123047 L65.31062316894531,36.12839889526367 L66.53373718261719,34.97405242919922 L67.74811553955078,33.56524658203125 L68.83120727539062,32.0232048034668 L69.69039154052734,30.499696731567383 L70.23722839355469,29.116769790649414 L70.42611694335938,27.99073028564453 L70.23714447021484,27.20344352722168 L69.70435333251953,26.843364715576172 L68.89518737792969,27.006961822509766 L67.87879943847656,27.769418716430664 L66.77973937988281,29.1313419342041 L65.7374038696289,31.022247314453125 L64.87316131591797,33.274349212646484 L64.29074096679688,35.69556427001953 L64.05587005615234,38.098182678222656 L64.19210052490234,40.312294006347656 L64.7109146118164,42.17504119873047 L65.59446716308594,43.572452545166016 L66.79021453857422,44.41706848144531 L68.23359680175781,44.675148010253906 L69.83399963378906,44.34593200683594 L71.47960662841797,43.482810974121094 L73.00926208496094,42.17927551269531 L74.26593780517578,40.616981506347656 L75.12059783935547,39.00541305541992 L75.51499938964844,37.555477142333984 L75.44544219970703,36.414794921875 L74.97740936279297,35.697444915771484 L74.19742584228516,35.48613739013672 L73.24561309814453,35.84040069580078 L72.30060577392578,36.740806579589844 L71.53455352783203,38.0765380859375 L71.17935943603516,39.68598937988281 L71.38162231445312,41.36964416503906 L72.14198303222656,42.951019287109375 L73.05611419677734,44.140968322753906 L73.78865051269531,44.839927673339844 M102.82666778564453,30.38483428955078 L102.7745132446289,30.081722259521484 L102.58563995361328,29.635107040405273 L102.15907287597656,29.146909713745117 L101.42988586425781,28.810897827148438 L100.36973571777344,28.715251922607422 L99.05928039550781,28.91436767578125 L97.6671371459961,29.421527862548828 L96.4184799194336,30.226993560791016 L95.53255462646484,31.271400451660156 L95.1820068359375,32.50513458251953 L95.39082336425781,33.854881286621094 L96.12410736083984,35.270111083984375 L97.23796081542969,36.72148895263672 L98.53397369384766,38.1724853515625 L99.79522705078125,39.57492446899414 L100.83154296875,40.868797302246094 L101.48465728759766,41.99027633666992 L101.6863784790039,42.922027587890625 L101.37185668945312,43.66804504394531 L100.51950073242188,44.24378967285156 L99.17277526855469,44.666259765625 L97.45018005371094,44.922576904296875 L95.55377197265625,45.02173614501953 L93.75397491455078,44.94258499145508 L92.26705932617188,44.66734313964844 L91.23239135742188,44.206268310546875 L90.66574096679688,43.735992431640625 L90.44754791259766,43.37968444824219 M107.73322296142578,29.62856101989746 L107.77300262451172,29.76070785522461 L107.79425811767578,30.149524688720703 L107.75090789794922,30.90729522705078 L107.61904907226562,32.0544319152832 L107.42884063720703,33.5258674621582 L107.21703338623047,35.22377014160156 L107.03688049316406,37.05577850341797 L106.90339660644531,38.93302917480469 L106.81028747558594,40.77091979980469 L106.76910400390625,42.47199249267578 L106.78316497802734,43.95421600341797 L106.8239974975586,45.07688903808594 L106.86994934082031,45.743141174316406 L106.87665557861328,45.918121337890625 L106.84516906738281,45.785789489746094 L106.8033218383789,45.558380126953125 M103.5803451538086,37.67144012451172 L103.53040313720703,37.64894485473633 L103.64970397949219,37.67753601074219 L104.09781646728516,37.80068588256836 L104.97081756591797,38.02001190185547 L106.18640899658203,38.26924133300781 L107.60517883300781,38.45431137084961 L109.07682037353516,38.50749969482422 L110.5118179321289,38.39539337158203 L111.84992980957031,38.126224517822266 L113.01390075683594,37.731689453125 L113.91183471679688,37.27878189086914 L114.51287841796875,36.83625030517578 L114.80585479736328,36.4937744140625 L114.84325408935547,36.33360290527344 L114.70551300048828,36.424781799316406 L114.44678497314453,36.823577880859375 L114.11383056640625,37.549278259277344 L113.81639099121094,38.53274917602539 L113.62200927734375,39.64418411254883 L113.60172271728516,40.727699279785156 L113.79069519042969,41.62052917480469 L114.18184661865234,42.21934509277344 L114.74937438964844,42.454933166503906 L115.48863220214844,42.283897399902344 L116.36077117919922,41.70982360839844 L117.31449127197266,40.803192138671875 L118.2748794555664,39.67628479003906 L119.16790008544922,38.49966049194336 L119.9113998413086,37.434852600097656 L120.45397186279297,36.59550476074219 L120.79019927978516,36.023643493652344 L120.94161224365234,35.719627380371094 L120.95960998535156,35.67607116699219 L120.9180679321289,35.92259216308594 L120.8327865600586,36.526206970214844 L120.70975494384766,37.5223503112793 L120.5637435913086,38.88099670410156 L120.40576171875,40.53648376464844 L120.26158142089844,42.404685974121094 L120.14300537109375,44.3975944519043 L120.00674438476562,46.45518112182617 L119.79177856445312,48.49147033691406 L119.45095825195312,50.40312194824219 L118.9640121459961,52.09519958496094 L118.35009002685547,53.47200393676758 L117.64717102050781,54.46112060546875 L116.90436553955078,55.02826690673828 L116.15592956542969,55.162132263183594 L115.45021057128906,54.86035919189453 L114.8609619140625,54.154998779296875 L114.48014068603516,53.07832336425781 L114.41353607177734,51.69569778442383 L114.74705505371094,50.08739471435547 L115.5007095336914,48.35371398925781 L116.63233184814453,46.565635681152344 L118.08326721191406,44.787078857421875 L119.76719665527344,43.043357849121094 L121.60749053955078,41.33626937866211 L123.53494262695312,39.6475830078125 L125.46363830566406,37.974727630615234 L127.28550720214844,36.299217224121094 L128.92572021484375,34.625240325927734 L130.30877685546875,32.98153305053711 L131.39002990722656,31.42039680480957 L132.16722106933594,30.016433715820312 L132.64454650878906,28.849838256835938 L132.8313446044922,27.977794647216797 L132.74301147460938,27.461315155029297 L132.3955078125,27.357919692993164 L131.80215454101562,27.72783660888672 L131.0131378173828,28.607954025268555 L130.11654663085938,29.976455688476562 L129.2295684814453,31.73768424987793 L128.4761199951172,33.7459716796875 L127.99127960205078,35.81983947753906 L127.85581970214844,37.788455963134766 L128.1270751953125,39.498722076416016 L128.81588745117188,40.840476989746094 L129.87815856933594,41.73212432861328 L131.22715759277344,42.12504959106445 L132.7514190673828,41.99525833129883 L134.3022003173828,41.375980377197266 L135.7489013671875,40.3448486328125 L136.94757080078125,39.048553466796875 L137.79783630371094,37.67066192626953 L138.25181579589844,36.38127899169922 L138.31314086914062,35.32286834716797 L138.01002502441406,34.61280822753906 L137.40289306640625,34.31987380981445 L136.55885314941406,34.50205993652344 L135.60931396484375,35.167388916015625 L134.73094177246094,36.240116119384766 L134.13487243652344,37.59770965576172 L133.9871063232422,39.091224670410156 L134.47793579101562,40.55864715576172 L135.7715301513672,41.89482879638672 L137.27610778808594,42.88334655761719 L138.5101318359375,43.45667266845703" fill="none" stroke="black" stroke-linecap="round" stroke-linejoin="round" stroke-miterlimit="2" stroke-width="2.0" /></svg>