<?xml version="1.0" encoding="utf-8" ?>
<svg baseProfile="full" height="50.0mm" version="1.1" viewBox="0,0,37.795275590551185,188.9763779527559" width="10.0mm" xmlns="http://www.w3.org/2000/svg" xmlns:ev="http://www.w3.org/2001/xml-events" xmlns:xlink="http://www.w3.org/1999/xlink"><defs /><path d="M18.992843627929688,26.567934036254883 L18.21411895751953,26.494888305664062 L16.950672149658203,26.437725067138672 L15.368715286254883,26.485811233520508 L13.796130180358887,26.72005844116211 L12.348434448242188,27.160419464111328 L11.118345260620117,27.78352928161621 L10.167379379272461,28.550891876220703 L9.590606689453125,29.42317008972168 L9.478434562683105,30.384462356567383 L9.880759239196777,31.40148162841797 L10.810011863708496,32.461483001708984 L12.229386329650879,33.54694366455078 L14.046350479125977,34.66704559326172 L16.093120574951172,35.81315231323242 L18.167999267578125,36.97343444824219 L20.057985305786133,38.10663604736328 L21.58441162109375,39.180946350097656 L22.64750862121582,40.157447814941406 L23.196582794189453,41.013099670410156 L23.203733444213867,41.71635818481445 L22.669946670532227,42.256065368652344 L21.59818458557129,42.609764099121094 L20.01973533630371,42.766944885253906 L18.01626205444336,42.72321319580078 L15.689961433410645,42.474464416503906 L13.169079780578613,42.0248908996582 L10.626253128051758,41.40922164916992 L8.263383865356445,40.62905502319336 L6.302011966705322,39.73579406738281 L4.902000904083252,38.80967330932617 L4.104335784912109,38.05974578857422 L3.7795276641845703,37.59291076660156 M32.951148986816406,35.616783142089844 L32.55762481689453,35.31996536254883 L31.845928192138672,34.95521545410156 L30.854135513305664,34.660133361816406 L29.743371963500977,34.61305618286133 L28.64204978942871,34.85091018676758 L27.623035430908203,35.356353759765625 L26.741552352905273,36.08799743652344 L26.043865203857422,37.02446365356445 L25.558021545410156,38.10210037231445 L25.319984436035156,39.243995666503906 L25.364748001098633,40.36653137207031 L25.6790771484375,41.373329162597656 L26.243724822998047,42.17671203613281 L27.01579475402832,42.71192932128906 L27.946741104125977,42.93663024902344 L28.992359161376953,42.82518768310547 L30.10068702697754,42.3873405456543 L31.213878631591797,41.66551208496094 L32.253631591796875,40.71809768676758 L33.143714904785156,39.65180969238281 L33.83802032470703,38.5992546081543 L34.31916427612305,37.67768859863281 L34.59345245361328,36.989620208740234 L34.70103454589844,36.59297180175781 L34.67749786376953,36.50408935546875 L34.569580078125,36.726806640625 L34.44257736206055,37.25242614746094 L34.3589973449707,38.036338806152344 L34.36572265625,39.00547790527344 L34.50127029418945,40.04888916015625 L34.78204345703125,41.06483459472656 L35.20987319946289,41.959716796875 L35.78507995605469,42.662261962890625 L36.490867614746094,43.11140441894531 L37.29559326171875,43.27591323852539 L38.17681884765625,43.099769592285156 L39.080543518066406,42.599365234375 L39.94641876220703,41.8503532409668 L40.61488342285156,41.13092041015625 L41.016441345214844,40.62610626220703 M42.3265380859375,35.71263885498047 L42.32609558105469,36.18807601928711 L42.322059631347656,36.968894958496094 L42.31953430175781,37.96865463256836 L42.33362579345703,38.994895935058594 L42.37591552734375,39.96280288696289 L42.42363739013672,40.78791427612305 L42.44031524658203,41.398719787597656 L42.40972137451172,41.71815490722656 L42.340118408203125,41.71491241455078 L42.27583312988281,41.40110778808594 L42.27043914794922,40.81116485595703 L42.358642578125,40.00664520263672 L42.56513977050781,39.0523681640625 L42.913902282714844,38.02075958251953 L43.429931640625,36.9963264465332 L44.1297607421875,36.050537109375 L45.020469665527344,35.249027252197266 L46.078941345214844,34.65785217285156 L47.27057647705078,34.3292350769043 L48.538475036621094,34.292049407958984 L49.826515197753906,34.56004333496094 L51.05809783935547,35.103797912597656 L52.15724182128906,35.879852294921875 L53.054588317871094,36.82172393798828 L53.71202087402344,37.84075164794922 L54.11480712890625,38.83283233642578 L54.29853820800781,39.70917510986328 L54.30677032470703,40.38816452026367 L54.184539794921875,40.82432556152344 L53.98938751220703,40.99903106689453 L53.77637481689453,40.9085693359375 L53.58848571777344,40.55473709106445 L53.48503875732422,39.96492004394531 L53.51824951171875,39.175079345703125 L53.72785949707031,38.24405288696289 L54.160804748535156,37.248016357421875 L54.846832275390625,36.27546691894531 L55.77978515625,35.396812438964844 L56.92491149902344,34.68292236328125 L58.22358703613281,34.18767166137695 L59.59577178955078,33.956722259521484 L60.96131896972656,34.00885772705078 L62.26258850097656,34.351192474365234 L63.44532775878906,34.939247131347656 L64.47598266601562,35.716941833496094 L65.3374252319336,36.607994079589844 L66.02764892578125,37.541988372802734 L66.54679107666016,38.441471099853516 L66.93446350097656,39.266090393066406 L67.1839828491211,39.87856674194336 L67.31885528564453,40.24136734008789 M71.12588500976562,35.07929992675781 L71.09835815429688,35.40629196166992 L71.0564193725586,36.023704528808594 L71.020751953125,36.953025817871094 L71.00141143798828,38.123077392578125 L70.98908996582031,39.49163818359375 L70.9649658203125,40.98075866699219 L70.90831756591797,42.49375915527344 L70.78857421875,43.888938903808594 L70.61774444580078,45.053314208984375 L70.3984603881836,45.893890380859375 L70.14134216308594,46.35455322265625 L69.86959075927734,46.415828704833984 L69.59270477294922,46.08272933959961 L69.31952667236328,45.37865447998047 L69.09246063232422,44.37272262573242 L68.9602279663086,43.156211853027344 L68.96854400634766,41.81602096557617 L69.17143249511719,40.425235748291016 L69.58177185058594,39.040428161621094 L70.20570373535156,37.71253204345703 L71.04681396484375,36.5052490234375 L72.11747741699219,35.49017333984375 L73.40948486328125,34.72883987426758 L74.91317749023438,34.265647888183594 L76.56025695800781,34.1318244934082 L78.25861358642578,34.32539749145508 L79.88829803466797,34.810787200927734 L81.33921813964844,35.509788513183594 L82.50717163085938,36.32643508911133 L83.31836700439453,37.1558837890625 L83.70336151123047,37.915992736816406 L83.62432098388672,38.54217529296875 L83.064697265625,38.99432373046875 L82.05525970458984,39.244354248046875 L80.67621612548828,39.28696060180664 L79.06368255615234,39.121238708496094 L77.37410736083984,38.77083969116211 L75.7569580078125,38.2751579284668 L74.32434844970703,37.70360565185547 L73.17558288574219,37.11415100097656 L72.37470245361328,36.565032958984375 L71.95143127441406,36.08605194091797 L71.81648254394531,35.74200439453125 L71.83828735351562,35.5421028137207 M86.4671401977539,28.924028396606445 L86.32579803466797,29.471412658691406 L86.12259674072266,30.413387298583984 L85.91117095947266,31.690580368041992 L85.77019500732422,33.1207160949707 L85.70204162597656,34.642059326171875 L85.70237731933594,36.15861511230469 L85.75638580322266,37.59025192260742 L85.88395690917969,38.79965591430664 L86.09709167480469,39.665794372558594 L86.39547729492188,40.13956832885742 L86.67646789550781,40.30610275268555 L86.87348175048828,40.297176361083984 M91.28390502929688,36.68446731567383 L91.7603530883789,36.4948616027832 L92.58273315429688,36.17908477783203 L93.6915283203125,35.7541389465332 L94.88163757324219,35.267879486083984 L96.01274871826172,34.723514556884766 L96.95332336425781,34.15886688232422 L97.591064453125,33.602840423583984 L97.83452606201172,33.11945724487305 L97.6743392944336,32.76282501220703 L97.13667297363281,32.569950103759766 L96.288330078125,32.58393859863281 L95.2430419921875,32.838748931884766 L94.13520812988281,33.324607849121094 L93.10234069824219,34.01177978515625 L92.29503631591797,34.846073150634766 L91.81864929199219,35.76264572143555 L91.7353515625,36.714080810546875 L92.06657409667969,37.65153884887695 L92.7947769165039,38.513916015625 L93.86602020263672,39.24530029296875 L95.2035140991211,39.805355072021484 L96.7115478515625,40.1758918762207 L98.27790832519531,40.37161636352539 L99.8062744140625,40.413352966308594 L101.18920135498047,40.322235107421875 L102.35116577148438,40.13304138183594 L103.15579223632812,39.935516357421875 L103.594482421875,39.789207458496094 M133.1640625,27.772397994995117 L132.90960693359375,27.543987274169922 L132.34422302246094,27.225019454956055 L131.4141845703125,26.906156539916992 L130.1842498779297,26.719467163085938 L128.7806396484375,26.7064151763916 L127.35543060302734,26.878337860107422 L126.08103942871094,27.21521759033203 L125.12554168701172,27.707080841064453 L124.63312530517578,28.327116012573242 L124.7115478515625,29.04363250732422 L125.4092025756836,29.844276428222656 L126.68461608886719,30.73213768005371 L128.435791015625,31.72222900390625 L130.493408203125,32.8277473449707 L132.64657592773438,34.034812927246094 L134.66384887695312,35.28173065185547 L136.34197998046875,36.49640655517578 L137.52426147460938,37.608245849609375 L138.13111877441406,38.56622314453125 L138.13108825683594,39.34532928466797 L137.53433227539062,39.94425964355469 L136.37216186523438,40.353126525878906 L134.70054626464844,40.56261444091797 L132.6025390625,40.56720733642578 L130.20726013183594,40.361324310302734 L127.66805267333984,39.94512939453125 L125.17333221435547,39.34126663208008 L122.94681549072266,38.57196807861328 L121.17705535888672,37.703495025634766 L119.97428894042969,36.84088897705078 L119.32821655273438,36.17202377319336 L119.08576202392578,35.77621841430664 M142.3112335205078,30.56317901611328 L142.2307586669922,31.286670684814453 L142.11007690429688,32.45059585571289 L141.97959899902344,33.9055061340332 L141.90431213378906,35.378074645996094 L141.9151153564453,36.78575134277344 L142.0092315673828,38.0628662109375 L142.1236572265625,39.034271240234375 L142.21507263183594,39.61268615722656 M142.42462158203125,33.303802490234375 L143.214111328125,33.438072204589844 L144.44984436035156,33.65486526489258 L145.9465789794922,33.932437896728516 L147.384521484375,34.223384857177734 L148.67466735839844,34.51013946533203 L149.7796173095703,34.76850891113281 L150.59437561035156,34.96185302734375 L151.06539916992188,35.07106018066406 M156.3598175048828,33.140350341796875 L156.24984741210938,33.41606903076172 L156.0159454345703,33.918304443359375 L155.66656494140625,34.650020599365234 L155.26458740234375,35.55412292480469 L154.87159729003906,36.61433792114258 L154.51864624023438,37.786685943603516 L154.21299743652344,39.023197174072266 L153.9430389404297,40.221885681152344 L153.72244262695312,41.2818717956543 L153.58676147460938,42.126060485839844 L153.564208984375,42.69073486328125 L153.68312072753906,42.93080139160156 L153.98049926757812,42.84255599975586 L154.4701690673828,42.430870056152344 L155.16708374023438,41.72978973388672 L156.06283569335938,40.81929397583008 L157.11012268066406,39.78459548950195 L158.24598693847656,38.71931457519531 L159.40386962890625,37.71506118774414 L160.5108642578125,36.842376708984375 L161.52076721191406,36.154850006103516 L162.41464233398438,35.72118377685547 L163.17697143554688,35.59140396118164 L163.79859924316406,35.80615234375 L164.25848388671875,36.373565673828125 L164.53570556640625,37.2678108215332 L164.61695861816406,38.4266471862793 L164.51268005371094,39.789363861083984 L164.22259521484375,41.275794982910156 L163.72171020507812,42.78218078613281 L162.9654083251953,44.175559997558594 L161.91696166992188,45.324432373046875 L160.56207275390625,46.11925506591797 L158.94357299804688,46.51593017578125 L157.15672302246094,46.54164123535156 L155.32843017578125,46.199256896972656 L153.6370391845703,45.53993225097656 L152.24668884277344,44.65715026855469 L151.3201904296875,43.841312408447266 L150.85093688964844,43.280006408691406 M169.3607635498047,32.300880432128906 M169.69976806640625,33.34661865234375 L169.69923400878906,33.914161682128906 L169.67979431152344,34.859405517578125 L169.65365600585938,36.08798599243164 L169.65394592285156,37.373504638671875 L169.72314453125,38.62315368652344 L169.8717498779297,39.7554931640625 L170.13284301757812,40.706207275390625 L170.50218200683594,41.37989807128906 L170.9690704345703,41.736351013183594 L171.40179443359375,41.84696960449219 L171.70489501953125,41.8226318359375 M174.7133026123047,37.614532470703125 L175.2886199951172,37.44467544555664 L176.19680786132812,37.159950256347656 L177.30213928222656,36.77501678466797 L178.32650756835938,36.333274841308594 L179.1514129638672,35.844844818115234 L179.68568420410156,35.33961868286133 L179.90357971191406,34.86312484741211 L179.76712036132812,34.48552703857422 L179.28933715820312,34.26403045654297 L178.49610900878906,34.23650360107422 L177.4429931640625,34.426483154296875 L176.2416229248047,34.826786041259766 L175.04107666015625,35.40695571899414 L173.99374389648438,36.14143753051758 L173.2471923828125,36.98675537109375 L172.9038543701172,37.905357360839844 L173.01531982421875,38.85112762451172 L173.5952911376953,39.75593566894531 L174.6068115234375,40.53300476074219 L175.97242736816406,41.13502502441406 L177.60768127441406,41.5233154296875 L179.39723205566406,41.70585632324219 L181.21987915039062,41.6844596862793 L182.98545837402344,41.45051574707031 L184.35733032226562,41.143798828125 L185.1968536376953,40.882965087890625" fill="none" stroke="black" stroke-linecap="round" stroke-linejoin="round" stroke-miterlimit="2" stroke-width="2.0" /></svg>