<?xml version="1.0" encoding="utf-8" ?>
<svg baseProfile="full" height="50.0mm" version="1.1" viewBox="0,0,37.795275590551185,188.9763779527559" width="10.0mm" xmlns="http://www.w3.org/2000/svg" xmlns:ev="http://www.w3.org/2001/xml-events" xmlns:xlink="http://www.w3.org/1999/xlink"><defs /><path d="M13.838885307312012,29.452314376831055 L13.804389953613281,29.069664001464844 L13.726333618164062,28.494707107543945 L13.597390174865723,27.844148635864258 L13.392067909240723,27.289705276489258 L13.09658432006836,26.874013900756836 L12.677549362182617,26.61676788330078 L12.110105514526367,26.524831771850586 L11.407848358154297,26.634178161621094 L10.625182151794434,26.985797882080078 L9.822882652282715,27.600025177001953 L9.086034774780273,28.493560791015625 L8.467241287231445,29.651920318603516 L8.009326934814453,31.034313201904297 L7.756566047668457,32.57511901855469 L7.741719722747803,34.186798095703125 L7.98093843460083,35.78965377807617 L8.441604614257812,37.328495025634766 L9.048879623413086,38.7691764831543 L9.690507888793945,40.095924377441406 L10.272745132446289,41.31920623779297 L10.710912704467773,42.428802490234375 L10.967470169067383,43.41432189941406 L11.021406173706055,44.263694763183594 L10.8848295211792,44.96318817138672 L10.556880950927734,45.50685119628906 L10.077963829040527,45.923927307128906 L9.452552795410156,46.22380828857422 L8.700553894042969,46.41025924682617 L7.843829154968262,46.47555160522461 L6.945461273193359,46.40948486328125 L6.069950103759766,46.22655487060547 L5.341567039489746,45.94441223144531 L4.824944496154785,45.58494186401367 L4.5509257316589355,45.17775344848633 L4.45900821685791,44.826820373535156 L4.467972755432129,44.590904235839844 M19.487260818481445,33.598575592041016 L19.53915786743164,33.35081100463867 L19.582422256469727,32.946685791015625 L19.574480056762695,32.45013427734375 L19.457361221313477,31.98308563232422 L19.226125717163086,31.613948822021484 L18.8758487701416,31.41095542907715 L18.4232120513916,31.44527816772461 L17.862533569335938,31.801225662231445 L17.20912742614746,32.57074737548828 L16.48392105102539,33.801307678222656 L15.74538803100586,35.47224044799805 L15.055556297302246,37.468345642089844 L14.495405197143555,39.57464599609375 L14.107918739318848,41.519142150878906 L13.924407005310059,43.08667755126953 L13.955338478088379,44.14918899536133 L14.182625770568848,44.66474533081055 L14.60231876373291,44.63434600830078 L15.225379943847656,44.041439056396484 L16.0450439453125,42.865638732910156 L17.031959533691406,41.19456481933594 L18.126216888427734,39.22023391723633 L19.22229766845703,37.19915771484375 L20.228538513183594,35.387332916259766 L21.061172485351562,33.94922637939453 L21.67551040649414,32.91132354736328 L22.06305694580078,32.27388381958008 L22.239547729492188,32.04309844970703 L22.229793548583984,32.258995056152344 L22.05603790283203,33.0020751953125 L21.730384826660156,34.30670166015625 L21.307373046875,36.05649185180664 L20.87045669555664,38.05996322631836 L20.503192901611328,40.08010482788086 L20.263263702392578,41.89316177368164 L20.168777465820312,43.356178283691406 L20.185911178588867,44.4072380065918 L20.268463134765625,45.05752944946289 L20.375728607177734,45.39543151855469 L20.47765350341797,45.43382263183594 L20.55908203125,45.165645599365234 L20.63238525390625,44.575340270996094 L20.690223693847656,43.90696334838867 L20.727184295654297,43.37324905395508 M25.805618286132812,31.866273880004883 L25.83755874633789,31.933074951171875 L25.87957000732422,32.25471878051758 L25.898151397705078,32.99912643432617 L25.847156524658203,34.254337310791016 L25.694320678710938,35.952972412109375 L25.447998046875,37.94860076904297 L25.143657684326172,40.013572692871094 L24.84577178955078,41.90280532836914 L24.61444091796875,43.40788269042969 L24.484451293945312,44.43199157714844 L24.439228057861328,44.972816467285156 L24.45525360107422,45.098968505859375 L24.503494262695312,44.81693649291992 L24.58979034423828,44.05352783203125 L24.78093719482422,42.74330520629883 L25.144149780273438,40.96068572998047 L25.709197998046875,38.91206359863281 L26.47928237915039,36.883018493652344 L27.398788452148438,35.109519958496094 L28.394222259521484,33.71882629394531 L29.414005279541016,32.76093292236328 L30.392929077148438,32.26988220214844 L31.2581787109375,32.27915573120117 L31.948436737060547,32.8198356628418 L32.386043548583984,33.879295349121094 L32.52925109863281,35.375335693359375 L32.3946533203125,37.17133331298828 L32.05819320678711,39.0966796875 L31.630538940429688,40.93721389770508 L31.248756408691406,42.50562286376953 L30.978397369384766,43.675559997558594 L30.83831787109375,44.387786865234375 L30.812450408935547,44.618003845214844 L30.88556671142578,44.34654998779297 L31.085926055908203,43.515743255615234 L31.48552703857422,42.13671875 L32.11798858642578,40.356014251708984 L32.97793960571289,38.42237091064453 L34.002525329589844,36.57853317260742 L35.083187103271484,35.010074615478516 L36.13055419921875,33.792232513427734 L37.07063674926758,32.94613265991211 L37.85023880004883,32.500301361083984 L38.43724822998047,32.50587844848633 L38.8122673034668,33.01430130004883 L38.97036361694336,34.056610107421875 L38.93547821044922,35.5706787109375 L38.74805450439453,37.40098190307617 L38.47117233276367,39.33967590332031 L38.17277145385742,41.19914627075195 L37.9074821472168,42.862518310546875 L37.72764587402344,44.227333068847656 L37.65725326538086,45.20697021484375 L37.68704605102539,45.75074768066406 L37.76225280761719,45.9417724609375 L37.83404541015625,45.9270133972168 M42.95684814453125,33.22441482543945 L42.96547317504883,33.37220764160156 L42.96693801879883,33.79775619506836 L42.94561767578125,34.629600524902344 L42.884376525878906,35.91436004638672 L42.77974319458008,37.61771011352539 L42.616031646728516,39.63026809692383 L42.39570999145508,41.815547943115234 L42.13249206542969,44.04747772216797 L41.85300827026367,46.189552307128906 L41.5986328125,48.10708236694336 L41.40602493286133,49.680870056152344 L41.295597076416016,50.837745666503906 L41.25182342529297,51.55186080932617 L41.25324249267578,51.83929443359375 L41.26556396484375,51.686607360839844 L41.273399353027344,51.052520751953125 L41.277183532714844,49.888275146484375 L41.32221603393555,48.2462043762207 L41.43876266479492,46.257850646972656 L41.66994857788086,44.093528747558594 L42.03925704956055,41.90071487426758 L42.564666748046875,39.77833938598633 L43.24274826049805,37.794979095458984 L44.06708526611328,36.05367660522461 L44.990840911865234,34.66220474243164 L45.95692825317383,33.68981170654297 L46.91317367553711,33.162261962890625 L47.810245513916016,33.06624984741211 L48.598575592041016,33.36935043334961 L49.22225570678711,34.04216384887695 L49.61660385131836,35.04093933105469 L49.72126770019531,36.28736877441406 L49.520606994628906,37.6884651184082 L49.01842498779297,39.141937255859375 L48.25738525390625,40.548187255859375 L47.31346130371094,41.82421875 L46.293724060058594,42.88851547241211 L45.31684112548828,43.678592681884766 L44.49774169921875,44.18328094482422 L43.911460876464844,44.37339782714844 L43.57626724243164,44.26660919189453 L43.46065139770508,43.91062927246094 L43.47124099731445,43.49717712402344 L43.523189544677734,43.171669006347656 M54.57981491088867,27.490182876586914 L54.611793518066406,27.5280818939209 L54.65372085571289,27.75066375732422 L54.677608489990234,28.298480987548828 L54.65009307861328,29.26886749267578 L54.540706634521484,30.647079467773438 L54.36014175415039,32.36531448364258 L54.126861572265625,34.31885528564453 L53.86705017089844,36.40043258666992 L53.613441467285156,38.50482940673828 L53.40211486816406,40.517730712890625 L53.246795654296875,42.3095588684082 L53.17268371582031,43.74456024169922 L53.17202377319336,44.71080780029297 L53.22343444824219,45.17804718017578 L53.28739547729492,45.285762786865234 L53.337467193603516,45.217918395996094 M54.60544967651367,39.34221649169922 L54.6949348449707,39.32638931274414 L54.925601959228516,39.229156494140625 L55.348751068115234,38.97434997558594 L55.971717834472656,38.476924896240234 L56.7618522644043,37.70233917236328 L57.660118103027344,36.672218322753906 L58.602134704589844,35.4653205871582 L59.512874603271484,34.197418212890625 L60.31568145751953,32.995689392089844 L60.93608474731445,31.947589874267578 L61.319679260253906,31.112512588500977 L61.435028076171875,30.520477294921875 L61.2644157409668,30.197107315063477 L60.81468200683594,30.194820404052734 L60.10508346557617,30.594179153442383 L59.165565490722656,31.468347549438477 L58.081565856933594,32.84143829345703 L56.97666549682617,34.655235290527344 L56.00071716308594,36.74696731567383 L55.31047058105469,38.88988494873047 L55.02082443237305,40.83964920043945 L55.159175872802734,42.40034866333008 L55.695438385009766,43.47903060913086 L56.608604431152344,44.017066955566406 L57.818275451660156,44.031524658203125 L59.201202392578125,43.6049919128418 L60.38932800292969,43.04299545288086 L61.16438674926758,42.58073425292969 M79.6028060913086,29.131162643432617 L79.51138305664062,28.842342376708984 L79.29405212402344,28.417743682861328 L78.90460205078125,27.96047019958496 L78.33969116210938,27.63176155090332 L77.60719299316406,27.490856170654297 L76.71696472167969,27.59110450744629 L75.70954895019531,27.950645446777344 L74.66464233398438,28.597139358520508 L73.69090270996094,29.529325485229492 L72.92689514160156,30.702383041381836 L72.4871597290039,32.03943634033203 L72.43367767333984,33.447757720947266 L72.78521728515625,34.84853744506836 L73.50220489501953,36.21107864379883 L74.4932632446289,37.529197692871094 L75.63526916503906,38.80872344970703 L76.77484130859375,40.04820251464844 L77.75208282470703,41.224220275878906 L78.43852233886719,42.31777572631836 L78.73992156982422,43.324031829833984 L78.61886596679688,44.2369384765625 L78.09597778320312,45.05465316772461 L77.21471405029297,45.76769256591797 L76.05243682861328,46.352622985839844 L74.72359466552734,46.79011917114258 L73.35379028320312,47.06108093261719 L72.07864379882812,47.144744873046875 L71.01472473144531,47.00896453857422 L70.22370147705078,46.6678352355957 L69.71791076660156,46.17094421386719 L69.46064758300781,45.7011833190918 L69.36920928955078,45.38007354736328 M84.34912872314453,27.947906494140625 L84.36664581298828,27.919797897338867 L84.39703369140625,27.924379348754883 L84.43519592285156,28.050870895385742 L84.45182037353516,28.39858627319336 L84.41834259033203,29.04958724975586 L84.32758331298828,30.032270431518555 L84.1682357788086,31.330188751220703 L83.95675659179688,32.89853286743164 L83.71842193603516,34.6906623840332 L83.47061157226562,36.632625579833984 L83.24559783935547,38.65113830566406 L83.0723648071289,40.64445877075195 L82.97685241699219,42.509098052978516 L82.9754638671875,44.134456634521484 L83.05683898925781,45.450035095214844 L83.17005157470703,46.351165771484375 L83.2565689086914,46.7886848449707 L83.25697326660156,46.7765998840332 L83.20016479492188,46.534358978271484 L83.12844848632812,46.26114273071289 M81.17571258544922,36.613304138183594 L81.33077239990234,36.34733581542969 L81.70818328857422,35.89215850830078 L82.37542724609375,35.277130126953125 L83.30563354492188,34.58793640136719 L84.42906188964844,33.855953216552734 L85.64289855957031,33.11748504638672 L86.87421417236328,32.41032791137695 L88.04740905761719,31.795921325683594 L89.10284423828125,31.314319610595703 L89.94864654541016,30.985076904296875 L90.52323150634766,30.84100341796875 L90.77576446533203,30.933181762695312 L90.7161636352539,31.342988967895508 L90.38447570800781,32.15687561035156 L89.85502624511719,33.3905143737793 L89.20629119873047,34.97044372558594 L88.54741668701172,36.76355743408203 L87.97782897949219,38.58531951904297 L87.58686065673828,40.25703048706055 L87.44664764404297,41.63938522338867 L87.58898162841797,42.623268127441406 L88.01071166992188,43.136436462402344 L88.68842315673828,43.15443420410156 L89.589599609375,42.68314743041992 L90.65876770019531,41.76268005371094 L91.84468841552734,40.49005889892578 L93.07947540283203,38.99908447265625 L94.29092407226562,37.44178009033203 L95.39466094970703,35.98167037963867 L96.31499481201172,34.75672912597656 L96.99535369873047,33.82900619506836 L97.4082260131836,33.2326774597168 L97.56005096435547,32.98619079589844 L97.48681640625,33.121055603027344 L97.21221160888672,33.71061325073242 L96.76219177246094,34.81642532348633 L96.19788360595703,36.40660858154297 L95.57766723632812,38.38645935058594 L94.973876953125,40.62126922607422 L94.44648742675781,42.97700119018555 L94.00040435791016,45.35105895996094 L93.62332916259766,47.667640686035156 L93.29441833496094,49.836448669433594 L92.99238586425781,51.74729537963867 L92.7165756225586,53.2985954284668 L92.46757507324219,54.416473388671875 L92.22322082519531,55.082679748535156 L91.99581146240234,55.24924087524414 L91.7884292602539,54.92324447631836 L91.63438415527344,54.150230407714844 L91.5499267578125,53.294647216796875 L91.52633666992188,52.6335334777832 M100.53646087646484,28.03563690185547 L100.5750961303711,28.0520076751709 L100.63200378417969,28.197229385375977 L100.68997192382812,28.591922760009766 L100.71715545654297,29.340259552001953 L100.69145202636719,30.482864379882812 L100.59526824951172,32.003963470458984 L100.42184448242188,33.839664459228516 L100.18363952636719,35.89833068847656 L99.90382385253906,38.068824768066406 L99.6065444946289,40.222110748291016 L99.32351684570312,42.23234176635742 L99.09564971923828,43.98375701904297 L98.9527587890625,45.37562561035156 L98.90520477294922,46.36063003540039 L98.92117309570312,46.93352508544922 L98.95575714111328,47.18113708496094 M101.95986938476562,41.9879150390625 L102.2931137084961,41.736122131347656 L102.88556671142578,41.22738265991211 L103.68628692626953,40.430885314941406 L104.56635284423828,39.415924072265625 L105.45803833007812,38.25316619873047 L106.28974151611328,37.02637481689453 L107.01295471191406,35.82024383544922 L107.591552734375,34.71051788330078 L107.96884155273438,33.747318267822266 L108.10799407958984,32.98603057861328 L107.98104095458984,32.47502517700195 L107.5484390258789,32.26251983642578 L106.80529022216797,32.42035675048828 L105.80597686767578,33.022605895996094 L104.65715026855469,34.09945297241211 L103.51264190673828,35.61241912841797 L102.55514526367188,37.4340705871582 L101.92453002929688,39.362518310546875 L101.72917175292969,41.19269943237305 L102.0326156616211,42.75690841674805 L102.8416519165039,43.945858001708984 L104.09991455078125,44.711944580078125 L105.713623046875,45.065635681152344 L107.57292938232422,44.98103713989258 L109.59599304199219,44.42363739013672 L111.29988861083984,43.71730041503906 L112.42721557617188,43.11500549316406" fill="none" stroke="black" stroke-linecap="round" stroke-linejoin="round" stroke-miterlimit="2" stroke-width="2.0" /></svg>