<?xml version="1.0" encoding="utf-8" ?>
<svg baseProfile="full" height="50.0mm" version="1.1" viewBox="0,0,37.795275590551185,188.9763779527559" width="10.0mm" xmlns="http://www.w3.org/2000/svg" xmlns:ev="http://www.w3.org/2001/xml-events" xmlns:xlink="http://www.w3.org/1999/xlink"><defs /><path d="M12.9920072555542,29.259531021118164 L12.968697547912598,28.99549102783203 L12.809389114379883,28.60504913330078 L12.413641929626465,28.183408737182617 L11.717124938964844,27.887969970703125 L10.747825622558594,27.792816162109375 L9.60319709777832,27.954936981201172 L8.429040908813477,28.393320083618164 L7.397666931152344,29.122634887695312 L6.649744033813477,30.124732971191406 L6.283822059631348,31.369125366210938 L6.343297004699707,32.829071044921875 L6.8272705078125,34.47883605957031 L7.682920455932617,36.30170440673828 L8.809252738952637,38.24585723876953 L10.04757022857666,40.22505569458008 L11.202075958251953,42.10133361816406 L12.094488143920898,43.743446350097656 L12.611400604248047,45.054969787597656 L12.69151496887207,46.02074432373047 L12.323156356811523,46.66115188598633 L11.53512191772461,47.0386962890625 L10.376748085021973,47.177757263183594 L8.952840805053711,47.11170959472656 L7.4293622970581055,46.83070755004883 L6.007573127746582,46.363319396972656 L4.863821029663086,45.75944519042969 L4.130291938781738,45.21489334106445 L3.7795276641845703,44.84345245361328 M23.808860778808594,38.58159637451172 L23.91813087463379,38.23478698730469 L23.951168060302734,37.620365142822266 L23.77751922607422,36.812599182128906 L23.288841247558594,36.023902893066406 L22.511188507080078,35.43846130371094 L21.509382247924805,35.213531494140625 L20.392175674438477,35.433860778808594 L19.233118057250977,36.105445861816406 L18.116737365722656,37.17567443847656 L17.130664825439453,38.5726318359375 L16.355087280273438,40.20318603515625 L15.864057540893555,41.955318450927734 L15.705008506774902,43.688880920410156 L15.870685577392578,45.23664855957031 L16.316316604614258,46.452003479003906 L16.987573623657227,47.23749542236328 L17.83000946044922,47.52095413208008 L18.81222915649414,47.26676940917969 L19.90018653869629,46.47930908203125 L21.027114868164062,45.20820236206055 L22.101516723632812,43.591495513916016 L23.056489944458008,41.81976318359375 L23.838727951049805,40.09592819213867 L24.426218032836914,38.60820770263672 L24.83406639099121,37.476444244384766 L25.08085823059082,36.74578094482422 L25.16958999633789,36.42519760131836 L25.120559692382812,36.5198974609375 L24.945425033569336,37.07072067260742 L24.670291900634766,38.12580108642578 L24.369457244873047,39.645103454589844 L24.110591888427734,41.468963623046875 L23.935148239135742,43.33878707885742 L23.85291862487793,44.9920654296875 L23.856191635131836,46.256263732910156 L23.993824005126953,46.993751525878906 L24.32512092590332,47.174346923828125 L24.869020462036133,46.84410095214844 L25.434465408325195,46.314064025878906 L25.858163833618164,45.84828186035156 M31.656986236572266,35.7987060546875 L31.770273208618164,35.596900939941406 L31.879459381103516,35.42362976074219 L31.914676666259766,35.46758270263672 L31.796911239624023,35.96262741088867 L31.53441619873047,37.00243377685547 L31.165943145751953,38.575618743896484 L30.73092269897461,40.5224609375 L30.2678279876709,42.587440490722656 L29.831226348876953,44.45392608642578 L29.460424423217773,45.8838996887207 L29.203765869140625,46.763790130615234 L29.07588768005371,47.086116790771484 L29.086549758911133,46.90199279785156 L29.243188858032227,46.2132568359375 L29.568300247192383,45.025489807128906 L30.06597900390625,43.408607482910156 L30.749568939208984,41.506263732910156 L31.59762191772461,39.52461242675781 L32.58888244628906,37.712833404541016 L33.65374755859375,36.23311996459961 L34.729705810546875,35.18920135498047 L35.73242950439453,34.617244720458984 L36.601341247558594,34.51685333251953 L37.296607971191406,34.894229888916016 L37.81950378417969,35.786888122558594 L38.15455627441406,37.160606384277344 L38.31904602050781,38.92275619506836 L38.33100128173828,40.86739730834961 L38.21455383300781,42.717437744140625 L38.0076904296875,44.229061126708984 L37.77412414550781,45.287437438964844 L37.57305908203125,45.85585021972656 L37.47801971435547,45.98603057861328 L37.55470275878906,45.69190979003906 L37.84886932373047,44.94028854370117 L38.371360778808594,43.72365951538086 L39.10662078857422,42.15256881713867 L40.01897430419922,40.412620544433594 L41.04875946044922,38.74011993408203 L42.13185119628906,37.317081451416016 L43.21192932128906,36.255550384521484 L44.22185516357422,35.59541320800781 L45.114784240722656,35.365421295166016 L45.857566833496094,35.574283599853516 L46.413490295410156,36.22309494018555 L46.763153076171875,37.28697967529297 L46.90813446044922,38.69195556640625 L46.873329162597656,40.29246520996094 L46.71966552734375,41.919193267822266 L46.518409729003906,43.407470703125 L46.309898376464844,44.643157958984375 L46.14494323730469,45.55537796020508 L46.05375671386719,46.115943908691406 L46.06340789794922,46.34800720214844 L46.132354736328125,46.36931228637695 L46.21723937988281,46.3028564453125 M52.435646057128906,36.07724380493164 L52.42888641357422,36.245826721191406 L52.372215270996094,36.718692779541016 L52.24339294433594,37.6343879699707 L52.03666687011719,39.048912048339844 L51.770347595214844,40.935302734375 L51.45225524902344,43.180763244628906 L51.096214294433594,45.63922882080078 L50.69135284423828,48.1387825012207 L50.25340270996094,50.47532653808594 L49.816192626953125,52.45801544189453 L49.426902770996094,53.951568603515625 L49.12007141113281,54.85945129394531 L48.93507385253906,55.162132263183594 L48.87049102783203,54.87736511230469 L48.92405700683594,53.997528076171875 L49.09385681152344,52.54742431640625 L49.37986755371094,50.6126708984375 L49.77991485595703,48.323402404785156 L50.31257629394531,45.863075256347656 L50.976036071777344,43.41785430908203 L51.781822204589844,41.131622314453125 L52.725303649902344,39.11789321899414 L53.778160095214844,37.46633529663086 L54.90283966064453,36.24800491333008 L56.05432891845703,35.514495849609375 L57.178192138671875,35.28852081298828 L58.233741760253906,35.56946563720703 L59.15929412841797,36.31509780883789 L59.883636474609375,37.449737548828125 L60.33177185058594,38.852394104003906 L60.452186584472656,40.37388610839844 L60.23292541503906,41.849037170410156 L59.7091064453125,43.134552001953125 L58.953369140625,44.12383270263672 L58.05530548095703,44.7831916809082 L57.087303161621094,45.111087799072266 L56.14677429199219,45.167694091796875 L55.32569122314453,45.051231384277344 L54.710716247558594,44.87348175048828 L54.364349365234375,44.714805603027344 L54.31275177001953,44.6224365234375 L54.543174743652344,44.561981201171875 L55.07008361816406,44.48072814941406 L55.90131378173828,44.32408905029297 L57.039794921875,44.04100036621094 L58.45085144042969,43.57380676269531 L60.064422607421875,42.88536071777344 L61.77558135986328,41.93170928955078 L63.485191345214844,40.70466613769531 L65.09974670410156,39.229736328125 L66.53229522705078,37.558040618896484 L67.71783447265625,35.76719284057617 L68.61155700683594,33.98451232910156 L69.19732666015625,32.350685119628906 L69.49186706542969,31.005205154418945 L69.5371322631836,30.048828125 L69.3552017211914,29.527606964111328 L68.96318817138672,29.45090103149414 L68.37850189208984,29.83092498779297 L67.64137268066406,30.671579360961914 L66.84097290039062,31.95470428466797 L66.091796875,33.60624313354492 L65.48036193847656,35.50079345703125 L65.07183074951172,37.47764205932617 L64.9090347290039,39.38035202026367 L65.00553894042969,41.071407318115234 L65.37891387939453,42.46444320678711 L66.02598571777344,43.50531768798828 L66.9100570678711,44.167293548583984 L67.99051666259766,44.44356918334961 L69.20846557617188,44.33399963378906 L70.4858169555664,43.84490203857422 L71.75363159179688,43.027503967285156 L72.93562316894531,41.95700454711914 L73.9671630859375,40.72943878173828 L74.795166015625,39.461612701416016 L75.37501525878906,38.268043518066406 L75.67520141601562,37.239933013916016 L75.7027359008789,36.454200744628906 L75.47058868408203,35.949974060058594 L75.01837921142578,35.755401611328125 L74.38995361328125,35.89665985107422 L73.64925384521484,36.396549224853516 L72.87750244140625,37.24226379394531 L72.1897201538086,38.383731842041016 L71.67178344726562,39.71538543701172 L71.3940658569336,41.12078857421875 L71.40886688232422,42.48771667480469 L71.74465942382812,43.72276306152344 L72.41514587402344,44.74995422363281 L73.41742706298828,45.51683807373047 L74.76203918457031,45.913455963134766 L76.37529754638672,45.879940032958984 L78.13799285888672,45.42591857910156 L79.61299133300781,44.833892822265625 L80.56047058105469,44.34602355957031 M99.14484405517578,27.7194766998291 L99.11046600341797,27.456092834472656 L98.92945098876953,27.0814151763916 L98.50355529785156,26.700923919677734 L97.77436828613281,26.468339920043945 L96.77848815917969,26.437725067138672 L95.60082244873047,26.640317916870117 L94.37657928466797,27.063182830810547 L93.24249267578125,27.705995559692383 L92.31845092773438,28.549230575561523 L91.70789337158203,29.561630249023438 L91.49076843261719,30.72251319885254 L91.70692443847656,32.02153015136719 L92.35550689697266,33.446083068847656 L93.38526916503906,34.99810791015625 L94.6727523803711,36.65750503540039 L96.05599212646484,38.377647399902344 L97.35847473144531,40.08148956298828 L98.4361572265625,41.67948913574219 L99.17625427246094,43.07292938232422 L99.52326202392578,44.19810485839844 L99.45606231689453,45.0338134765625 L98.97802734375,45.58905792236328 L98.13116455078125,45.893531799316406 L96.99922180175781,45.98226547241211 L95.67921447753906,45.86261749267578 L94.28572082519531,45.546836853027344 L92.92672729492188,45.07244110107422 L91.7496109008789,44.43518829345703 L90.90155029296875,43.675628662109375 L90.48685455322266,42.84379577636719 L90.40858459472656,42.137420654296875 L90.50447082519531,41.67247009277344 M104.8668212890625,29.852481842041016 L104.86165618896484,29.86751365661621 L104.78509521484375,30.047534942626953 L104.59314727783203,30.537147521972656 L104.28572845458984,31.44345474243164 L103.928466796875,32.75807189941406 L103.58087921142578,34.40287780761719 L103.26968383789062,36.253353118896484 L102.99897766113281,38.18916702270508 L102.74229431152344,40.10648727416992 L102.49655151367188,41.90943145751953 L102.28553009033203,43.504093170166016 L102.13182067871094,44.763328552246094 L102.04737854003906,45.582584381103516 L102.05249786376953,45.93985366821289 L102.10155487060547,45.976951599121094 L102.15650177001953,45.873775482177734 M102.89413452148438,37.58400344848633 L103.07127380371094,37.49374008178711 L103.41728210449219,37.38373947143555 L103.9732666015625,37.28895568847656 L104.73928833007812,37.240684509277344 L105.72534942626953,37.20451354980469 L106.91671752929688,37.13706970214844 L108.26819610595703,36.98184585571289 L109.67277526855469,36.729583740234375 L111.00374603271484,36.41087341308594 L112.11663055419922,36.07183837890625 L112.88597869873047,35.78285598754883 L113.25074768066406,35.640220642089844 L113.23660278320312,35.726322174072266 L112.89606475830078,36.11652755737305 L112.33002471923828,36.862274169921875 L111.66694641113281,37.9286994934082 L111.0472640991211,39.22655487060547 L110.59451293945312,40.62202453613281 L110.41421508789062,41.95934295654297 L110.5341567993164,43.094818115234375 L110.9384536743164,43.93355178833008 L111.603271484375,44.41975402832031 L112.49972534179688,44.5377197265625 L113.57208251953125,44.284515380859375 L114.76197052001953,43.69110870361328 L115.9705581665039,42.80517578125 L117.09342193603516,41.71453857421875 L118.05670928955078,40.51673889160156 L118.82746124267578,39.3327751159668 L119.389404296875,38.26693344116211 L119.77119445800781,37.41084289550781 L119.99552917480469,36.82294464111328 L120.07963562011719,36.54307174682617 L120.03710174560547,36.5982666015625 L119.88831329345703,37.050621032714844 L119.64872741699219,37.95280456542969 L119.35706329345703,39.30210876464844 L119.04077911376953,41.032527923583984 L118.68736267089844,43.02211380004883 L118.27367401123047,45.14888000488281 L117.7684097290039,47.28782653808594 L117.14994812011719,49.32606506347656 L116.42505645751953,51.139129638671875 L115.62984466552734,52.60746765136719 L114.79329681396484,53.64802551269531 L113.96654510498047,54.24410629272461 L113.19107818603516,54.43174743652344 L112.53861999511719,54.19672393798828 L112.07389831542969,53.5622444152832 L111.85343933105469,52.582244873046875 L111.81562042236328,51.61247253417969 L111.87206268310547,50.905662536621094 M125.350341796875,31.580501556396484 L125.35244750976562,31.830141067504883 L125.27458953857422,32.43999481201172 L125.08534240722656,33.51589584350586 L124.76017761230469,35.03892517089844 L124.34050750732422,36.923274993896484 L123.87408447265625,39.029762268066406 L123.4113540649414,41.19542694091797 L122.98882293701172,43.229156494140625 L122.67426300048828,44.93366241455078 L122.48331451416016,46.150489807128906 L122.40451049804688,46.84042739868164 L122.39544677734375,47.115638732910156 M127.70738220214844,42.31900405883789 L128.24293518066406,42.11823654174805 L129.10923767089844,41.747398376464844 L130.1957244873047,41.20762634277344 L131.25804138183594,40.53059005737305 L132.19566345214844,39.730796813964844 L132.9197235107422,38.8548583984375 L133.39300537109375,37.97026443481445 L133.56187438964844,37.164485931396484 L133.4219207763672,36.53782653808594 L132.9920654296875,36.15670394897461 L132.32244873046875,36.09347152709961 L131.4806671142578,36.40288543701172 L130.5583953857422,37.104801177978516 L129.66510009765625,38.16421127319336 L128.9241485595703,39.49443054199219 L128.44430541992188,40.97166442871094 L128.3032989501953,42.47904968261719 L128.53553771972656,43.92259216308594 L129.1177215576172,45.2200813293457 L130.00662231445312,46.2887077331543 L131.13816833496094,47.03694152832031 L132.4388427734375,47.40038299560547 L133.83119201660156,47.357730865478516 L135.24888610839844,46.914878845214844 L136.65028381347656,46.09052658081055 L137.76666259765625,45.232608795166016 L138.4752197265625,44.57851791381836" fill="none" stroke="black" stroke-linecap="round" stroke-linejoin="round" stroke-miterlimit="2" stroke-width="2.0" /></svg>