<?xml version="1.0" encoding="utf-8" ?>
<svg baseProfile="full" height="50.0mm" version="1.1" viewBox="0,0,37.795275590551185,188.9763779527559" width="10.0mm" xmlns="http://www.w3.org/2000/svg" xmlns:ev="http://www.w3.org/2001/xml-events" xmlns:xlink="http://www.w3.org/1999/xlink"><defs /><path d="M18.242015838623047,30.318153381347656 L18.008699417114258,30.036239624023438 L17.6054630279541,29.599430084228516 L17.02811050415039,29.08540153503418 L16.307849884033203,28.627126693725586 L15.410651206970215,28.28774642944336 L14.324615478515625,28.117977142333984 L13.070108413696289,28.143428802490234 L11.731939315795898,28.39638328552246 L10.417737007141113,28.874025344848633 L9.247014999389648,29.520689010620117 L8.302921295166016,30.272918701171875 L7.643162727355957,31.06134605407715 L7.283560752868652,31.82913589477539 L7.241915702819824,32.55202865600586 L7.544538974761963,33.20956039428711 L8.228313446044922,33.765625 L9.310750961303711,34.18977355957031 L10.767943382263184,34.47370910644531 L12.51131820678711,34.637847900390625 L14.414981842041016,34.75989532470703 L16.330507278442383,34.92932891845703 L18.131433486938477,35.228668212890625 L19.74658966064453,35.717369079589844 L21.12830924987793,36.41974639892578 L22.25385093688965,37.30759048461914 L23.083045959472656,38.33150863647461 L23.576271057128906,39.41204833984375 L23.70142936706543,40.47359848022461 L23.453723907470703,41.465789794921875 L22.836257934570312,42.35845947265625 L21.861888885498047,43.12354278564453 L20.52235221862793,43.738746643066406 L18.839242935180664,44.18026351928711 L16.857872009277344,44.433963775634766 L14.66679859161377,44.504302978515625 L12.410714149475098,44.40770721435547 L10.237323760986328,44.154354095458984 L8.268610000610352,43.7647590637207 L6.589443206787109,43.27928161621094 L5.278148174285889,42.72660446166992 L4.376981735229492,42.15514373779297 L3.915463447570801,41.613494873046875 L3.7795276641845703,41.197471618652344 L3.8178820610046387,40.946197509765625 M32.335540771484375,35.231903076171875 L32.037960052490234,35.03982925415039 L31.56117057800293,34.79492950439453 L30.900571823120117,34.62677001953125 L30.11210060119629,34.72857666015625 L29.170475006103516,35.21396255493164 L28.114608764648438,36.13294982910156 L27.044002532958984,37.42588424682617 L26.135425567626953,38.96156311035156 L25.501550674438477,40.559783935546875 L25.231822967529297,42.05326843261719 L25.340194702148438,43.309329986572266 L25.804956436157227,44.2368049621582 L26.5733699798584,44.75848388671875 L27.57428741455078,44.81465148925781 L28.706274032592773,44.37605667114258 L29.864635467529297,43.464080810546875 L30.932510375976562,42.152618408203125 L31.823379516601562,40.58076858520508 L32.49723815917969,38.954078674316406 L32.94168472290039,37.48932647705078 L33.191322326660156,36.36189270019531 L33.310935974121094,35.67633819580078 L33.366634368896484,35.46843338012695 L33.43696975708008,35.746124267578125 L33.59031295776367,36.52825164794922 L33.838680267333984,37.757484436035156 L34.163841247558594,39.24892044067383 L34.55057144165039,40.737998962402344 L34.961185455322266,41.9649772644043 L35.38409423828125,42.78604507446289 L35.73401641845703,43.21441650390625 L35.96131134033203,43.37250518798828 M38.648406982421875,35.10712432861328 L38.63572692871094,35.02707290649414 L38.67485046386719,35.090599060058594 L38.81061553955078,35.478790283203125 L39.045166015625,36.33537292480469 L39.319183349609375,37.57841873168945 L39.56654357910156,39.00501251220703 L39.73675537109375,40.35395050048828 L39.83219909667969,41.420963287353516 L39.89490509033203,42.13174819946289 L39.9437255859375,42.51013946533203 L39.98509979248047,42.57355499267578 L40.01966857910156,42.30201721191406 L40.058387756347656,41.618736267089844 L40.14225769042969,40.50052261352539 L40.348289489746094,39.07170867919922 L40.734153747558594,37.5556526184082 L41.32977294921875,36.20566177368164 L42.124725341796875,35.216949462890625 L43.07231903076172,34.683799743652344 L44.10106658935547,34.64375305175781 L45.13148498535156,35.10298156738281 L46.06940460205078,36.019012451171875 L46.822601318359375,37.28731918334961 L47.335670471191406,38.74298858642578 L47.62505340576172,40.180450439453125 L47.754364013671875,41.4040412902832 L47.81231689453125,42.304962158203125 L47.85414123535156,42.84443664550781 L47.90174102783203,43.023475646972656 L47.96320343017578,42.838165283203125 L48.07106018066406,42.23753356933594 L48.29109191894531,41.191650390625 L48.709930419921875,39.813568115234375 L49.34495544433594,38.31281280517578 L50.16856384277344,36.948158264160156 L51.102577209472656,35.9180908203125 L52.06428527832031,35.2948112487793 L53.01044464111328,35.06845474243164 L53.93628692626953,35.23402404785156 L54.777809143066406,35.79365921020508 L55.457672119140625,36.74013137817383 L55.898963928222656,38.014198303222656 L56.085044860839844,39.49869155883789 L56.068458557128906,41.024757385253906 L55.96759033203125,42.4086799621582 L55.86871337890625,43.51074981689453 L55.81263732910156,44.21929931640625 L55.79637908935547,44.56210708618164 M59.55354309082031,35.368988037109375 L59.65850067138672,35.53710174560547 L59.85503387451172,36.00114059448242 L60.13416290283203,36.8835334777832 L60.446205139160156,38.20719909667969 L60.73320770263672,39.90090560913086 L60.94414520263672,41.87166976928711 L61.05467987060547,44.01436996459961 L61.05830383300781,46.239532470703125 L60.97257995605469,48.459205627441406 L60.83233642578125,50.552154541015625 L60.66485595703125,52.36225128173828 L60.512367248535156,53.780906677246094 L60.381263732910156,54.72532653808594 L60.27123260498047,55.16213607788086 L60.148841857910156,55.07541275024414 L60.00316619873047,54.44770050048828 L59.84503936767578,53.254974365234375 L59.73200988769531,51.566741943359375 L59.70033264160156,49.49969482421875 L59.798973083496094,47.22168731689453 L60.04149627685547,44.898895263671875 L60.450660705566406,42.66944122314453 L61.02666473388672,40.6263313293457 L61.78257751464844,38.86524200439453 L62.71044158935547,37.4531364440918 L63.8079833984375,36.448516845703125 L65.05809020996094,35.887046813964844 L66.42190551757812,35.78376388549805 L67.8036880493164,36.11457061767578 L69.089599609375,36.82482147216797 L70.14804077148438,37.82201385498047 L70.86998748779297,38.983985900878906 L71.1861801147461,40.180328369140625 L71.07770538330078,41.300567626953125 L70.56889343261719,42.259010314941406 L69.713134765625,43.00861740112305 L68.5792465209961,43.536128997802734 L67.24618530273438,43.82933807373047 L65.79985809326172,43.896575927734375 L64.33948516845703,43.71181106567383 L62.99760437011719,43.28399658203125 L61.89690399169922,42.671722412109375 L61.164215087890625,42.09320068359375 L60.794044494628906,41.689117431640625 M73.36038970947266,27.45014762878418 L73.3840103149414,27.456113815307617 L73.43888092041016,27.634035110473633 L73.52496337890625,28.12759017944336 L73.62190246582031,29.04810905456543 L73.70742797851562,30.366724014282227 L73.74877166748047,32.00672912597656 L73.72174072265625,33.84775924682617 L73.62982177734375,35.7857666015625 L73.49696350097656,37.707496643066406 L73.36246490478516,39.518272399902344 L73.2995376586914,41.10609436035156 L73.34784698486328,42.368099212646484 L73.50383758544922,43.22660446166992 L73.74472045898438,43.69034957885742 L73.97291564941406,43.852928161621094 L74.12264251708984,43.85582733154297 M76.13809967041016,41.435752868652344 L76.37584686279297,41.484527587890625 L76.88074493408203,41.480987548828125 L77.68458557128906,41.33537292480469 L78.72588348388672,40.95905303955078 L79.93407440185547,40.35411071777344 L81.18179321289062,39.56962585449219 L82.34490203857422,38.68405532836914 L83.31698608398438,37.784698486328125 L83.99949645996094,36.93235397338867 L84.34481811523438,36.1688232421875 L84.34552764892578,35.53932571411133 L83.99162292480469,35.09081268310547 L83.2931900024414,34.88576889038086 L82.2718734741211,35.00402069091797 L81.00489807128906,35.49531936645508 L79.64273071289062,36.37138366699219 L78.38758087158203,37.57958984375 L77.43693542480469,39.00214767456055 L76.9710922241211,40.50006866455078 L77.08641815185547,41.922542572021484 L77.83602142333984,43.13614273071289 L79.18216705322266,44.04644775390625 L81.01569366455078,44.61730194091797 L83.18975830078125,44.84014892578125 L85.48815155029297,44.774147033691406 L87.67183685302734,44.501800537109375 L89.32794189453125,44.195472717285156 L90.29841613769531,43.96626281738281 M112.71988677978516,30.505882263183594 L112.74858856201172,30.16228485107422 L112.76738739013672,29.583267211914062 L112.72174835205078,28.842256546020508 L112.54752349853516,28.106155395507812 L112.17035675048828,27.45563507080078 L111.53809356689453,26.942777633666992 L110.63286590576172,26.595333099365234 L109.50521087646484,26.437725067138672 L108.25357055664062,26.49755096435547 L107.0177993774414,26.79105567932129 L105.91233825683594,27.30728530883789 L105.03112030029297,28.018648147583008 L104.42875671386719,28.879133224487305 L104.14456939697266,29.830333709716797 L104.2107925415039,30.824413299560547 L104.65213012695312,31.830284118652344 L105.46275329589844,32.82543182373047 L106.61278533935547,33.801937103271484 L108.02937316894531,34.75767517089844 L109.60425567626953,35.6970329284668 L111.21119689941406,36.63087844848633 L112.72811126708984,37.58746337890625 L114.02506256103516,38.577579498291016 L115.01366424560547,39.606407165527344 L115.64098358154297,40.662200927734375 L115.86729431152344,41.7075080871582 L115.68016052246094,42.68246078491211 L115.09538269042969,43.530086517333984 L114.12757873535156,44.192405700683594 L112.81932067871094,44.630699157714844 L111.24073028564453,44.83327102661133 L109.46702575683594,44.81086730957031 L107.6006851196289,44.59247589111328 L105.7618408203125,44.223419189453125 L104.05390167236328,43.752227783203125 L102.54740905761719,43.203216552734375 L101.29637908935547,42.61893081665039 L100.3290786743164,42.05024337768555 L99.6990737915039,41.609004974365234 L99.37874603271484,41.34526062011719 M117.18475341796875,28.069366455078125 L117.19825744628906,27.9909610748291 L117.23171997070312,27.951356887817383 L117.28263854980469,28.077899932861328 L117.32499694824219,28.538490295410156 L117.33552551269531,29.43305206298828 L117.29704284667969,30.748916625976562 L117.2233657836914,32.380096435546875 L117.15584564208984,34.17603302001953 L117.14485168457031,35.99997329711914 L117.20825958251953,37.77838897705078 L117.34630584716797,39.47917175292969 L117.51494598388672,41.05241012573242 L117.65919494628906,42.41493606567383 L117.74463653564453,43.47431182861328 L117.7755355834961,44.14638137817383 L117.77083587646484,44.467063903808594 M114.45884704589844,38.07364273071289 L114.43653106689453,38.03977966308594 L114.49463653564453,38.00695037841797 L114.73583984375,37.966827392578125 L115.26163482666016,37.89968490600586 L116.08976745605469,37.73765563964844 L117.17259979248047,37.4266471862793 L118.44181060791016,36.95671081542969 L119.79214477539062,36.35911560058594 L121.1329574584961,35.69165802001953 L122.38346862792969,35.04827880859375 L123.43871307373047,34.508087158203125 L124.23175048828125,34.120567321777344 L124.75633239746094,33.89310836791992 L125.0259017944336,33.803550720214844 L125.08843231201172,33.862178802490234 L125.00006103515625,34.138580322265625 L124.7793197631836,34.71616744995117 L124.4702377319336,35.612335205078125 L124.14376831054688,36.722930908203125 L123.8693618774414,37.85823059082031 L123.70631408691406,38.84587860107422 L123.6829605102539,39.58713912963867 L123.79390716552734,40.06740188598633 L124.02434539794922,40.287498474121094 L124.38936614990234,40.23204803466797 L124.90624237060547,39.874332427978516 L125.593017578125,39.23246383666992 L126.39948272705078,38.38948059082031 L127.24925994873047,37.500518798828125 L128.03880310058594,36.71124267578125 L128.72486877441406,36.13432312011719 L129.3225555419922,35.81963348388672 L129.9154510498047,35.781951904296875 L130.5533905029297,36.02370834350586 L131.2470703125,36.57079315185547 L131.94644165039062,37.433258056640625 L132.58299255371094,38.61408233642578 L133.0856475830078,40.07848358154297 L133.42723083496094,41.760894775390625 L133.57774353027344,43.570281982421875 L133.52459716796875,45.427207946777344 L133.26071166992188,47.242313385009766 L132.79039001464844,48.94671630859375 L132.10386657714844,50.47245788574219 L131.2196502685547,51.75682830810547 L130.14166259765625,52.739288330078125 L128.90264892578125,53.37713623046875 L127.55156707763672,53.625179290771484 L126.16883087158203,53.461029052734375 L124.83554077148438,52.89817428588867 L123.65515899658203,52.00769805908203 L122.72940826416016,50.8197021484375 L122.13818359375,49.418304443359375 L121.90166473388672,47.906585693359375 L121.90347290039062,46.64113998413086 L122.0007095336914,45.81999969482422 M134.73150634765625,27.65431785583496 L134.7787628173828,27.69816780090332 L134.8895721435547,27.93018913269043 L135.07872009277344,28.48284912109375 L135.31784057617188,29.42807388305664 L135.56207275390625,30.739809036254883 L135.75677490234375,32.34539031982422 L135.85450744628906,34.13529968261719 L135.86932373046875,35.997039794921875 L135.85519409179688,37.820499420166016 L135.87185668945312,39.49070358276367 L135.98611450195312,40.93385314941406 L136.22373962402344,42.11167526245117 L136.56703186035156,42.99220275878906 L137.01898193359375,43.55052947998047 L137.5771026611328,43.75059509277344 L138.25022888183594,43.55713653564453 L139.0553436279297,42.97995376586914 L139.962890625,42.07090759277344 L140.9010009765625,40.91026306152344 L141.7957763671875,39.60537338256836 L142.56039428710938,38.26826858520508 L143.14178466796875,36.99797058105469 L143.51519775390625,35.88124465942383 L143.66624450683594,34.96778106689453 L143.63095092773438,34.27134704589844 L143.4723358154297,33.78129196166992 L143.22994995117188,33.498573303222656 L142.91171264648438,33.44720458984375 L142.4827880859375,33.689666748046875 L141.89598083496094,34.27421188354492 L141.20193481445312,35.19414520263672 L140.53028869628906,36.36393737792969 L140.0390167236328,37.65086364746094 L139.87319946289062,38.91164779663086 L140.11233520507812,40.05134582519531 L140.746826171875,41.013912200927734 L141.72840881347656,41.76396942138672 L142.9895477294922,42.28346633911133 L144.44378662109375,42.56361770629883 L146.04000854492188,42.58000946044922 L147.7565460205078,42.3077507019043 L149.20162963867188,41.9319953918457 L150.16049194335938,41.599857330322266" fill="none" stroke="black" stroke-linecap="round" stroke-linejoin="round" stroke-miterlimit="2" stroke-width="2.0" /></svg>