<?xml version="1.0" encoding="utf-8" ?>
<svg baseProfile="full" height="50.0mm" version="1.1" viewBox="0,0,37.795275590551185,188.9763779527559" width="10.0mm" xmlns="http://www.w3.org/2000/svg" xmlns:ev="http://www.w3.org/2001/xml-events" xmlns:xlink="http://www.w3.org/1999/xlink"><defs /><path d="M17.631467819213867,28.99161720275879 L17.5064697265625,28.646007537841797 L17.220155715942383,28.13129997253418 L16.69921875,27.539331436157227 L15.931538581848145,27.034467697143555 L14.929089546203613,26.66160011291504 L13.740699768066406,26.460613250732422 L12.457426071166992,26.437725067138672 L11.163466453552246,26.62870979309082 L9.909929275512695,27.030719757080078 L8.78347396850586,27.644071578979492 L7.886109828948975,28.45722007751465 L7.328451633453369,29.461273193359375 L7.229221343994141,30.62017059326172 L7.674513816833496,31.90543556213379 L8.677590370178223,33.268985748291016 L10.198909759521484,34.68323516845703 L12.125514030456543,36.1234016418457 L14.26126766204834,37.574031829833984 L16.3847599029541,39.00818634033203 L18.29218292236328,40.402687072753906 L19.836225509643555,41.712066650390625 L20.92180633544922,42.902339935302734 L21.513442993164062,43.95230484008789 L21.591304779052734,44.859764099121094 L21.151599884033203,45.63220977783203 L20.214824676513672,46.284912109375 L18.84795379638672,46.807857513427734 L17.127044677734375,47.19237518310547 L15.150993347167969,47.4223518371582 L13.02880573272705,47.488487243652344 L10.856382369995117,47.38262939453125 L8.74561882019043,47.10601806640625 L6.8509368896484375,46.69275665283203 L5.3150177001953125,46.22187805175781 L4.2940897941589355,45.82794952392578 L3.7795276641845703,45.586753845214844 M32.1904296875,40.6087646484375 L32.128517150878906,40.257259368896484 L31.924646377563477,39.72154235839844 L31.502347946166992,39.103904724121094 L30.817155838012695,38.59678649902344 L29.862409591674805,38.28230285644531 L28.678346633911133,38.23383712768555 L27.336942672729492,38.481048583984375 L25.960386276245117,39.06198501586914 L24.682708740234375,39.94565963745117 L23.644712448120117,41.079139709472656 L22.947275161743164,42.36085891723633 L22.65752601623535,43.681697845458984 L22.809993743896484,44.91154479980469 L23.425670623779297,45.94166564941406 L24.46331787109375,46.66088104248047 L25.84979820251465,47.01019287109375 L27.441265106201172,46.959293365478516 L29.07161521911621,46.531951904296875 L30.593097686767578,45.76533126831055 L31.906694412231445,44.7269287109375 L32.95487976074219,43.50848388671875 L33.73049545288086,42.23520278930664 L34.23079299926758,41.05752944946289 L34.48944091796875,40.111236572265625 L34.565773010253906,39.47652053833008 L34.53154373168945,39.190521240234375 L34.447540283203125,39.25347137451172 L34.362403869628906,39.65830612182617 L34.310611724853516,40.40370178222656 L34.322975158691406,41.43611145019531 L34.42781066894531,42.6583251953125 L34.660552978515625,43.96832275390625 L35.00956726074219,45.22987365722656 L35.443870544433594,46.32952117919922 L35.83470153808594,47.113983154296875 L36.096343994140625,47.547332763671875 M39.97211456298828,39.760318756103516 L39.99357604980469,39.5491828918457 L40.01837921142578,39.32215118408203 L40.03456115722656,39.228790283203125 L40.023284912109375,39.451473236083984 L39.980979919433594,40.05366897583008 L39.89653015136719,41.02117156982422 L39.783119201660156,42.26544952392578 L39.65624237060547,43.651588439941406 L39.54228210449219,45.0048828125 L39.44921112060547,46.156646728515625 L39.377777099609375,46.98674774169922 L39.32649230957031,47.42063903808594 L39.31395721435547,47.43756103515625 L39.354469299316406,47.034114837646484 L39.48899841308594,46.24623107910156 L39.734779357910156,45.14501953125 L40.112037658691406,43.834556579589844 L40.64849853515625,42.433162689208984 L41.357032775878906,41.05485534667969 L42.213958740234375,39.797279357910156 L43.182167053222656,38.7539176940918 L44.202423095703125,38.004783630371094 L45.21520233154297,37.60568618774414 L46.17884826660156,37.58081817626953 L47.06639099121094,37.92127990722656 L47.85893249511719,38.5948600769043 L48.521759033203125,39.541038513183594 L49.0369873046875,40.6819953918457 L49.364532470703125,41.903663635253906 L49.481658935546875,43.068756103515625 L49.410301208496094,44.049095153808594 L49.22166442871094,44.74253845214844 L48.9986572265625,45.073936462402344 L48.84503173828125,45.017356872558594 L48.822731018066406,44.5869255065918 L48.966346740722656,43.82476806640625 L49.29039001464844,42.823570251464844 L49.79283142089844,41.70429992675781 L50.462867736816406,40.58467102050781 L51.28118133544922,39.56764602661133 L52.212303161621094,38.74803924560547 L53.213951110839844,38.18980407714844 L54.233177185058594,37.943336486816406 L55.213531494140625,38.02473831176758 L56.111785888671875,38.41486740112305 L56.88371276855469,39.05967330932617 L57.50933837890625,39.89488983154297 L57.97797393798828,40.84474563598633 L58.299171447753906,41.83610916137695 L58.49835968017578,42.7827033996582 L58.606658935546875,43.6157112121582 L58.664344787597656,44.244476318359375 L58.73046112060547,44.612586975097656 L58.83373260498047,44.70539855957031 L58.94866943359375,44.63379669189453 L59.044517517089844,44.511131286621094 M63.61820983886719,39.34433364868164 L63.671905517578125,39.45899963378906 L63.74017333984375,39.7918815612793 L63.79443359375,40.43199157714844 L63.796234130859375,41.403404235839844 L63.73633575439453,42.67390060424805 L63.622406005859375,44.184326171875 L63.463905334472656,45.873741149902344 L63.262107849121094,47.677650451660156 L62.998046875,49.50717544555664 L62.64115905761719,51.245567321777344 L62.20135498046875,52.78028869628906 L61.71528625488281,53.994205474853516 L61.252418518066406,54.805084228515625 L60.879486083984375,55.162132263183594 L60.614295959472656,55.04431915283203 L60.44783020019531,54.46739959716797 L60.38330841064453,53.4774284362793 L60.416893005371094,52.14316177368164 L60.57423400878906,50.55828857421875 L60.87364196777344,48.82068634033203 L61.315452575683594,47.018211364746094 L61.904998779296875,45.243621826171875 L62.645362854003906,43.56767654418945 L63.53668212890625,42.05540466308594 L64.59558868408203,40.76659393310547 L65.82450103759766,39.74916458129883 L67.19780731201172,39.03253936767578 L68.65689849853516,38.64503479003906 L70.1180419921875,38.59409713745117 L71.51298522949219,38.863826751708984 L72.7684097290039,39.41606521606445 L73.81333923339844,40.18027877807617 L74.58340454101562,41.07689666748047 L75.00823974609375,42.02604675292969 L75.04615783691406,42.954769134521484 L74.7015380859375,43.7967529296875 L73.98696899414062,44.502235412597656 L72.94805908203125,45.02075958251953 L71.6721420288086,45.332763671875 L70.24891662597656,45.43211364746094 L68.7927474975586,45.338233947753906 L67.40264892578125,45.09192657470703 L66.16192626953125,44.75530242919922 L65.18891906738281,44.33549499511719 L64.58409881591797,43.84519958496094 L64.38059997558594,43.283203125 L64.4442138671875,42.78516387939453 L64.60157012939453,42.44200134277344 M79.0333023071289,28.627309799194336 L79.11328125,28.675264358520508 L79.19583892822266,28.881328582763672 L79.22956848144531,29.350341796875 L79.16604614257812,30.155288696289062 L79.0135498046875,31.303001403808594 L78.77914428710938,32.748043060302734 L78.48533630371094,34.42220687866211 L78.16525268554688,36.245174407958984 L77.85601806640625,38.123287200927734 L77.61132049560547,39.96092224121094 L77.4679946899414,41.66134262084961 L77.47174835205078,43.13473892211914 L77.6378402709961,44.304718017578125 L77.96085357666016,45.13573455810547 L78.30200958251953,45.620826721191406 L78.56034088134766,45.83360290527344 M83.10523223876953,43.703216552734375 L83.4085693359375,43.595115661621094 L83.9912338256836,43.3760986328125 L84.84586334228516,43.025474548339844 L85.85943603515625,42.557960510253906 L86.9296646118164,41.99260711669922 L87.94144439697266,41.35651397705078 L88.79856872558594,40.694053649902344 L89.40615844726562,40.04142761230469 L89.68812561035156,39.42621994018555 L89.59072875976562,38.89168930053711 L89.08165740966797,38.47896194458008 L88.17332458496094,38.248626708984375 L86.92410278320312,38.262939453125 L85.44985961914062,38.54969024658203 L83.91854095458984,39.097877502441406 L82.52848052978516,39.88190460205078 L81.47055053710938,40.834468841552734 L80.91625213623047,41.893821716308594 L80.9649658203125,42.975563049316406 L81.6702880859375,43.988346099853516 L83.00931549072266,44.83058166503906 L84.8992691040039,45.43968963623047 L87.19216918945312,45.796875 L89.77085876464844,45.92374801635742 L92.43611907958984,45.86917495727539 L94.99348449707031,45.69682693481445 L96.96066284179688,45.506439208984375 L98.14250946044922,45.363983154296875 M123.63190460205078,30.148662567138672 L123.38899230957031,29.736942291259766 L122.85211181640625,29.14826011657715 L121.95741271972656,28.527511596679688 L120.71440887451172,28.089548110961914 L119.1545181274414,27.891380310058594 L117.39373016357422,27.949460983276367 L115.61380004882812,28.242122650146484 L114.02552795410156,28.770633697509766 L112.83660888671875,29.50368881225586 L112.1816177368164,30.39251136779785 L112.11705780029297,31.39596939086914 L112.66817474365234,32.477176666259766 L113.83389282226562,33.6251220703125 L115.55211639404297,34.84079360961914 L117.69650268554688,36.115997314453125 L120.06855773925781,37.43806457519531 L122.4268798828125,38.78138732910156 L124.53153991699219,40.089752197265625 L126.20355224609375,41.30967330932617 L127.31946563720703,42.38852310180664 L127.82337188720703,43.28797149658203 L127.69569396972656,44.00498962402344 L126.95069122314453,44.54448699951172 L125.61924743652344,44.90599822998047 L123.7903823852539,45.09635543823242 L121.58826446533203,45.1158447265625 L119.17312622070312,44.96013641357422 L116.73095703125,44.642520904541016 L114.45637512207031,44.18101119995117 L112.4992904663086,43.60291290283203 L110.96271514892578,42.946754455566406 L109.96868133544922,42.209938049316406 L109.5746078491211,41.399478912353516 L109.78919219970703,40.55377197265625 L110.29361724853516,39.85541534423828 L110.78598022460938,39.40819549560547 M131.12278747558594,29.220497131347656 L131.13531494140625,29.24378776550293 L131.15821838378906,29.421613693237305 L131.17799377441406,29.868680953979492 L131.17588806152344,30.664505004882812 L131.11253356933594,31.807233810424805 L130.95407104492188,33.26520919799805 L130.70179748535156,34.980552673339844 L130.38461303710938,36.88675308227539 L130.05247497558594,38.90599822998047 L129.7659912109375,40.93721008300781 L129.5468292236328,42.8841552734375 L129.39865112304688,44.64986038208008 L129.3167266845703,46.12809753417969 L129.29396057128906,47.244651794433594 L129.30471801757812,47.94120788574219 L129.32867431640625,48.268245697021484 M126.25840759277344,39.94294738769531 L126.36876678466797,39.85688018798828 L126.69571685791016,39.77869415283203 L127.34032440185547,39.758060455322266 L128.40451049804688,39.84280014038086 L129.8565673828125,39.999412536621094 L131.56309509277344,40.18490982055664 L133.0458221435547,40.332740783691406 L134.01950073242188,40.4228515625 M139.11334228515625,38.98191833496094 L139.18435668945312,39.06269073486328 L139.3172149658203,39.220550537109375 L139.5256805419922,39.48005676269531 L139.8086700439453,39.84416961669922 L140.1779327392578,40.32624053955078 L140.63961791992188,40.89635467529297 L141.2123565673828,41.50553894042969 L141.90457153320312,42.07688903808594 L142.74269104003906,42.53203582763672 L143.73281860351562,42.7974853515625 L144.85098266601562,42.828514099121094 L146.03952026367188,42.61025619506836 L147.2202911376953,42.19612121582031 L148.2755889892578,41.671844482421875 L149.11199951171875,41.137088775634766 L149.6621551513672,40.67228698730469 L149.9015350341797,40.33360290527344 L149.8273162841797,40.1592903137207 L149.4676513671875,40.216819763183594 L148.8177490234375,40.568756103515625 L147.8876190185547,41.257347106933594 L146.71435546875,42.2759895324707 L145.36163330078125,43.57848358154297 L143.90093994140625,45.08401870727539 L142.4469757080078,46.71305847167969 L141.0928497314453,48.37342071533203 L139.9263153076172,49.961734771728516 L139.07264709472656,51.32088088989258 L138.6046905517578,52.302207946777344 L138.53131103515625,52.815338134765625 L138.68899536132812,52.959476470947266 L138.89813232421875,52.90473175048828 M155.140869140625,30.240989685058594 L155.2193145751953,29.83412742614746 L155.30502319335938,29.366962432861328 L155.35089111328125,29.067005157470703 L155.30609130859375,29.20859146118164 L155.17367553710938,29.850257873535156 L154.95416259765625,30.97351837158203 L154.6670684814453,32.49311065673828 L154.3360595703125,34.33913803100586 L154.0023956298828,36.38848114013672 L153.70668029785156,38.50703430175781 L153.48541259765625,40.56614303588867 L153.367919921875,42.45444107055664 L153.36196899414062,44.07400131225586 L153.47000122070312,45.35828399658203 L153.620849609375,46.20606994628906 L153.74810791015625,46.64690399169922 M156.866943359375,45.321990966796875 L157.10072326660156,45.29970169067383 L157.61001586914062,45.20046615600586 L158.43995666503906,44.974273681640625 L159.55250549316406,44.59161376953125 L160.8662567138672,44.078208923339844 L162.25498962402344,43.469608306884766 L163.56568908691406,42.809085845947266 L164.6562042236328,42.144371032714844 L165.40443420410156,41.505977630615234 L165.7473907470703,40.91484069824219 L165.65609741210938,40.40885543823242 L165.11813354492188,40.031707763671875 L164.1547393798828,39.839012145996094 L162.820068359375,39.88103485107422 L161.22569274902344,40.18657302856445 L159.54794311523438,40.74859619140625 L158.00428771972656,41.532501220703125 L156.7897491455078,42.487815856933594 L156.09873962402344,43.55133819580078 L156.05804443359375,44.63621520996094 L156.73855590820312,45.66313934326172 L158.13330078125,46.56470489501953 L160.12757873535156,47.29357147216797 L162.5443572998047,47.8476448059082 L165.2380828857422,48.258419036865234 L167.5139923095703,48.520904541015625 L169.0132293701172,48.6617431640625" fill="none" stroke="black" stroke-linecap="round" stroke-linejoin="round" stroke-miterlimit="2" stroke-width="2.0" /></svg>