<?xml version="1.0" encoding="utf-8" ?>
<svg baseProfile="full" height="50.0mm" version="1.1" viewBox="0,0,37.795275590551185,188.9763779527559" width="10.0mm" xmlns="http://www.w3.org/2000/svg" xmlns:ev="http://www.w3.org/2001/xml-events" xmlns:xlink="http://www.w3.org/1999/xlink"><defs /><path d="M17.145389556884766,28.861003875732422 L16.600967407226562,28.617111206054688 L15.660429954528809,28.311262130737305 L14.376206398010254,28.06886100769043 L12.925678253173828,28.0443058013916 L11.424530982971191,28.27461814880371 L10.042527198791504,28.78207778930664 L8.943586349487305,29.5543212890625 L8.327549934387207,30.57693099975586 L8.340136528015137,31.803895950317383 L9.036966323852539,33.156333923339844 L10.418668746948242,34.56007766723633 L12.379968643188477,35.95082473754883 L14.701653480529785,37.28927993774414 L17.06658172607422,38.547332763671875 L19.116640090942383,39.69353103637695 L20.511823654174805,40.69061279296875 L21.029830932617188,41.518829345703125 L20.590839385986328,42.14945602416992 L19.25919532775879,42.58887481689453 L17.214679718017578,42.860565185546875 L14.714409828186035,42.988014221191406 L12.027225494384766,42.98815155029297 L9.420610427856445,42.894996643066406 L7.157717704772949,42.67616653442383 L5.441167831420898,42.32737731933594 L4.37974214553833,41.868873596191406 L3.8940796852111816,41.440338134765625 L3.7795276641845703,41.13697814941406 M26.508466720581055,35.465126037597656 L25.997589111328125,35.671390533447266 L25.143714904785156,36.109710693359375 L24.049114227294922,36.832115173339844 L22.96470832824707,37.815731048583984 L22.056961059570312,39.00921630859375 L21.47041130065918,40.29958724975586 L21.274518966674805,41.53726577758789 L21.5119686126709,42.546173095703125 L22.14301872253418,43.16729736328125 L23.086885452270508,43.28657913208008 L24.230878829956055,42.851829528808594 L25.440507888793945,41.89118194580078 L26.571687698364258,40.541404724121094 L27.514541625976562,39.040531158447266 L28.189504623413086,37.645469665527344 L28.597095489501953,36.56127166748047 L28.75617790222168,35.90039825439453 L28.73130226135254,35.710052490234375 L28.58938980102539,36.002254486083984 L28.41362953186035,36.79616165161133 L28.30352783203125,38.03263854980469 L28.378564834594727,39.525978088378906 L28.703048706054688,41.01561737060547 L29.313640594482422,42.23821258544922 L30.16273307800293,42.97557067871094 L31.160539627075195,43.118621826171875 L32.232913970947266,42.66157531738281 L33.30988311767578,41.669654846191406 L34.34992218017578,40.321685791015625 L35.307098388671875,38.87034225463867 L36.108375549316406,37.56036376953125 L36.68751525878906,36.58199691772461 L37.02802276611328,36.05663299560547 L37.14349365234375,36.02455139160156 L37.1263427734375,36.49354934692383 L37.06603240966797,37.428497314453125 L37.04365539550781,38.68117904663086 L37.12007141113281,40.040321350097656 L37.34417724609375,41.26347351074219 L37.731781005859375,42.12784194946289 L38.30011749267578,42.467994689941406 L39.05248260498047,42.22330856323242 L39.95752716064453,41.3997802734375 L40.95240020751953,40.14344024658203 L41.94908142089844,38.71268844604492 L42.822723388671875,37.377838134765625 L43.49501037597656,36.34437942504883 L43.942230224609375,35.750980377197266 L44.16962432861328,35.64385223388672 L44.235633850097656,36.0331916809082 L44.20915985107422,36.90229797363281 L44.13886260986328,38.109554290771484 L44.093406677246094,39.43387222290039 L44.12726593017578,40.636260986328125 L44.28633117675781,41.50197982788086 L44.62554168701172,41.88243103027344 L45.183921813964844,41.73362731933594 L45.95732116699219,41.057472229003906 L46.88849639892578,39.975521087646484 L47.87310791015625,38.70352554321289 L48.798683166503906,37.49148941040039 L49.57322692871094,36.530250549316406 L50.16319274902344,35.95163345336914 L50.57665252685547,35.80281448364258 L50.85016632080078,36.111549377441406 L51.04582214355469,36.865718841552734 L51.22936248779297,37.99414825439453 L51.496910095214844,39.30160903930664 L51.91284942626953,40.540435791015625 L52.493370056152344,41.48770523071289 L53.05409240722656,42.042720794677734 L53.45869445800781,42.263431549072266 M56.93902587890625,36.1634407043457 L56.98017120361328,36.47975540161133 L57.060638427734375,37.194881439208984 L57.158302307128906,38.425270080566406 L57.22373962402344,40.171024322509766 L57.21575927734375,42.375709533691406 L57.11531066894531,44.88396453857422 L56.939697265625,47.451568603515625 L56.74208068847656,49.79573059082031 L56.5494384765625,51.648048400878906 L56.379486083984375,52.7951774597168 L56.22693634033203,53.11522674560547 L56.07988739013672,52.59221649169922 L55.95185852050781,51.29261779785156 L55.89268493652344,49.378623962402344 L55.943511962890625,47.07958221435547 L56.183815002441406,44.63928985595703 L56.670867919921875,42.26610565185547 L57.437461853027344,40.136295318603516 L58.48881530761719,38.372825622558594 L59.79108428955078,37.076534271240234 L61.24468994140625,36.33230972290039 L62.731300354003906,36.179168701171875 L64.0929946899414,36.58427047729492 L65.15089416503906,37.44890594482422 L65.7420654296875,38.609622955322266 L65.76394653320312,39.88427734375 L65.19611358642578,41.10768127441406 L64.0969009399414,42.093475341796875 L62.65611267089844,42.717044830322266 L61.12108612060547,42.932823181152344 L59.89154052734375,42.87928009033203 L59.15239715576172,42.72917175292969 M69.46391296386719,28.027851104736328 L69.4670639038086,28.383451461791992 L69.44815826416016,29.158321380615234 L69.38025665283203,30.41055679321289 L69.26166534423828,32.05747985839844 L69.121826171875,33.9880485534668 L69.04084014892578,36.057533264160156 L69.1200180053711,38.13451385498047 L69.45228576660156,40.07167053222656 L70.10002899169922,41.703346252441406 L71.08760833740234,42.87672424316406 L72.3599624633789,43.48792266845703 L73.83235931396484,43.494754791259766 L75.35660552978516,42.92039108276367 L76.77392578125,41.85462951660156 L77.92668151855469,40.44767379760742 L78.6980209350586,38.904884338378906 L79.00989532470703,37.44348907470703 L78.8675765991211,36.265193939208984 L78.32512664794922,35.51420211791992 L77.50605773925781,35.30100631713867 L76.56730651855469,35.66826629638672 L75.71251678466797,36.589996337890625 L75.12619018554688,37.93510437011719 L75.09658813476562,39.4917106628418 L75.77792358398438,40.99372100830078 L77.16220092773438,42.2311897277832 L78.65235900878906,43.03912353515625 L79.78414916992188,43.4366569519043 M102.43550872802734,30.222915649414062 L102.17716979980469,29.824113845825195 L101.5821762084961,29.28434944152832 L100.57315826416016,28.79536247253418 L99.20695495605469,28.615276336669922 L97.61791229248047,28.816574096679688 L96.02128601074219,29.39063835144043 L94.65799713134766,30.269794464111328 L93.76203155517578,31.389793395996094 L93.50926208496094,32.669883728027344 L94.02002716064453,34.016754150390625 L95.28279113769531,35.34453582763672 L97.15837860107422,36.58698272705078 L99.38673400878906,37.737430572509766 L101.63684844970703,38.80714416503906 L103.55442810058594,39.79928207397461 L104.89347839355469,40.70932388305664 L105.49473571777344,41.527305603027344 L105.30341339111328,42.227806091308594 L104.3499755859375,42.81297302246094 L102.73847961425781,43.26322555541992 L100.64513397216797,43.54906463623047 L98.35565948486328,43.66291046142578 L96.16268157958984,43.62826156616211 L94.39035034179688,43.40343475341797 L93.2579345703125,42.989356994628906 L92.83624267578125,42.38704299926758 L92.88035583496094,41.79222106933594 L93.109375,41.35477828979492 M109.74740600585938,27.95205307006836 L109.7767333984375,28.455875396728516 L109.82371520996094,29.4659423828125 L109.87969207763672,31.00743865966797 L109.9428482055664,32.94869613647461 L110.03273010253906,35.17412567138672 L110.170166015625,37.512447357177734 L110.38265991210938,39.80787658691406 L110.68537139892578,41.832218170166016 L111.0432357788086,43.35150909423828 L111.40313720703125,44.233543395996094 L111.68013763427734,44.57930374145508 L111.83548736572266,44.595252990722656 M107.68989562988281,37.03112030029297 L107.95446014404297,37.040245056152344 L108.58582305908203,37.07324981689453 L109.65910339355469,37.14365768432617 L111.11247253417969,37.241390228271484 L112.80046844482422,37.32044982910156 L114.5526123046875,37.321533203125 L116.2024154663086,37.187110900878906 L117.61518859863281,36.900909423828125 L118.6817855834961,36.49847412109375 L119.33755493164062,36.068931579589844 L119.57552337646484,35.723548889160156 L119.44857788085938,35.5880241394043 L119.04566192626953,35.763572692871094 L118.48967742919922,36.30649185180664 L117.94815063476562,37.186439514160156 L117.58460998535156,38.29941940307617 L117.54161834716797,39.456241607666016 L117.91411590576172,40.456886291503906 L118.71521759033203,41.12599182128906 L119.8706283569336,41.33146667480469 L121.28656768798828,41.03076934814453 L122.8162612915039,40.284461975097656 L124.28907775878906,39.23641586303711 L125.54823303222656,38.10988235473633 L126.47124481201172,37.115447998046875 L127.0029525756836,36.38842010498047 L127.18431854248047,36.02197265625 L127.12673950195312,36.074501037597656 L126.94071197509766,36.59941864013672 L126.71820831298828,37.65776824951172 L126.52413177490234,39.23725128173828 L126.40225219726562,41.260772705078125 L126.36097717285156,43.60869598388672 L126.38182830810547,46.12384033203125 L126.3847427368164,48.61991882324219 L126.26114654541016,50.92058563232422 L125.8965835571289,52.833641052246094 L125.21038055419922,54.213497161865234 L124.18595123291016,54.988197326660156 L122.87748718261719,55.162132263183594 L121.41902160644531,54.79054641723633 L120.02278137207031,53.988609313964844 L118.91735076904297,52.866416931152344 L118.3067855834961,51.51344299316406 L118.33843231201172,49.99286651611328 L119.05750274658203,48.34873962402344 L120.4330062866211,46.62657165527344 L122.36363983154297,44.885398864746094 L124.6884994506836,43.16364288330078 L127.20846557617188,41.456661224365234 L129.73208618164062,39.7156982421875 L132.08181762695312,37.87062072753906 L134.1312713623047,35.8851203918457 L135.78147888183594,33.784454345703125 L136.9732208251953,31.678285598754883 L137.66285705566406,29.727981567382812 L137.85565185546875,28.110759735107422 L137.56906127929688,26.974777221679688 L136.8628387451172,26.437725067138672 L135.82786560058594,26.588523864746094 L134.59698486328125,27.471145629882812 L133.33987426757812,29.059406280517578 L132.26922607421875,31.228063583374023 L131.57020568847656,33.744041442871094 L131.41159057617188,36.30537414550781 L131.88919067382812,38.629886627197266 L133.0003662109375,40.471065521240234 L134.6595001220703,41.678131103515625 L136.69735717773438,42.176055908203125 L138.8706817626953,41.96910095214844 L140.9188232421875,41.11878967285156 L142.57388305664062,39.77942657470703 L143.62225341796875,38.164207458496094 L143.95602416992188,36.54692077636719 L143.58319091796875,35.19282913208008 L142.63938903808594,34.33522415161133 L141.3563690185547,34.100521087646484 L140.02699279785156,34.511474609375 L138.93978881835938,35.471595764160156 L138.503173828125,36.849754333496094 L139.1215362548828,38.51461410522461 L140.27305603027344,39.98094940185547 L141.42251586914062,40.97435760498047" fill="none" stroke="black" stroke-linecap="round" stroke-linejoin="round" stroke-miterlimit="2" stroke-width="2.0" /></svg>