<?xml version="1.0" encoding="utf-8" ?>
<svg baseProfile="full" height="50.0mm" version="1.1" viewBox="0,0,37.795275590551185,188.9763779527559" width="10.0mm" xmlns="http://www.w3.org/2000/svg" xmlns:ev="http://www.w3.org/2001/xml-events" xmlns:xlink="http://www.w3.org/1999/xlink"><defs /><path d="M3.7795276641845703,37.24815368652344 L3.853306770324707,37.371856689453125 L3.8148319721221924,37.509273529052734 L3.8098881244659424,37.63433837890625 M36.67439270019531,29.089889526367188 L36.51447296142578,28.725006103515625 L36.16236877441406,28.159616470336914 L35.56380081176758,27.50088882446289 L34.70289611816406,26.941001892089844 L33.587913513183594,26.566421508789062 L32.237789154052734,26.437725067138672 L30.729902267456055,26.57368278503418 L29.21157455444336,26.994693756103516 L27.851924896240234,27.680564880371094 L26.82131576538086,28.588132858276367 L26.25888442993164,29.66092300415039 L26.23037338256836,30.8438720703125 L26.74290657043457,32.078155517578125 L27.76401710510254,33.3255729675293 L29.210725784301758,34.54716110229492 L30.9521541595459,35.722312927246094 L32.82459259033203,36.84342956542969 L34.64543151855469,37.9098014831543 L36.233978271484375,38.90976333618164 L37.47563934326172,39.84617233276367 L38.3193359375,40.71280288696289 L38.73596954345703,41.50994873046875 L38.72674560546875,42.235496520996094 L38.27606201171875,42.8724365234375 L37.366966247558594,43.390953063964844 L36.013572692871094,43.77490234375 L34.26799011230469,44.00769805908203 L32.21033477783203,44.09530258178711 L29.95876693725586,44.050750732421875 L27.622652053833008,43.88778305053711 L25.327964782714844,43.62390899658203 L23.205867767333984,43.287803649902344 L21.400226593017578,42.91999053955078 L20.017501831054688,42.5733757019043 L19.150856018066406,42.31697082519531 L18.735000610351562,42.173133850097656 M45.736366271972656,36.98018264770508 L45.52886962890625,36.77497482299805 L45.12303161621094,36.49799346923828 L44.48518371582031,36.2743034362793 L43.61492156982422,36.275733947753906 L42.542083740234375,36.59831619262695 L41.3486328125,37.272098541259766 L40.15794372558594,38.25856399536133 L39.12071228027344,39.46102523803711 L38.3641357421875,40.758460998535156 L37.93452453613281,42.00132751464844 L37.864356994628906,43.06047058105469 L38.127113342285156,43.817420959472656 L38.707923889160156,44.20254135131836 L39.57526397705078,44.16264724731445 L40.694305419921875,43.68917465209961 L41.99253845214844,42.801509857177734 L43.37969970703125,41.57115936279297 L44.734764099121094,40.11304473876953 L45.97021484375,38.59265899658203 L47.003440856933594,37.187564849853516 L47.78241729736328,36.04080581665039 L48.30113983154297,35.22124099731445 L48.59332275390625,34.76458740234375 L48.70143127441406,34.68396759033203 L48.69097137451172,35.00971984863281 L48.59230041503906,35.77936553955078 L48.43293762207031,36.95276641845703 L48.272071838378906,38.39307403564453 L48.17662048339844,39.92510986328125 L48.22297668457031,41.36209487915039 L48.46392059326172,42.57879638671875 L48.92133331298828,43.46658706665039 L49.566261291503906,43.959556579589844 L50.34058380126953,44.04987335205078 L51.01496124267578,43.908782958984375 L51.46489715576172,43.709503173828125 M55.43218994140625,35.931114196777344 L55.502288818359375,36.26904296875 L55.600563049316406,36.956443786621094 L55.68830871582031,38.003787994384766 L55.727256774902344,39.28574752807617 L55.70598602294922,40.65808868408203 L55.633583068847656,41.957359313964844 L55.53522491455078,43.049400329589844 L55.44969177246094,43.84825134277344 L55.400062561035156,44.28942108154297 L55.42637634277344,44.332027435302734 L55.549591064453125,43.95138931274414 L55.798133850097656,43.14500427246094 L56.195335388183594,41.97816848754883 L56.75627136230469,40.5925178527832 L57.4844970703125,39.156455993652344 L58.35728454589844,37.814964294433594 L59.32170867919922,36.67448043823242 L60.33617401123047,35.806270599365234 L61.36346435546875,35.26450729370117 L62.34613037109375,35.08781814575195 L63.265228271484375,35.30267333984375 L64.06438446044922,35.88225555419922 L64.6883544921875,36.77747344970703 L65.1095199584961,37.909637451171875 L65.33013916015625,39.183197021484375 L65.36683654785156,40.470726013183594 L65.28524780273438,41.64605712890625 L65.13591766357422,42.597930908203125 L64.96492767333984,43.24164581298828 L64.81768035888672,43.520530700683594 L64.7320556640625,43.42033004760742 L64.77249908447266,42.935142517089844 L64.99916076660156,42.091514587402344 L65.46533966064453,40.99114227294922 L66.1618881225586,39.75324249267578 L67.07162475585938,38.504764556884766 L68.13272857666016,37.36551284790039 L69.3005599975586,36.42564392089844 L70.52275085449219,35.756019592285156 L71.74244689941406,35.42295455932617 L72.86119842529297,35.43904113769531 L73.84290313720703,35.78093338012695 L74.64693450927734,36.4042854309082 L75.26953125,37.24197769165039 L75.7441177368164,38.228145599365234 L76.10411834716797,39.28923034667969 L76.37947845458984,40.33686447143555 L76.64546966552734,41.27022933959961 L76.93842315673828,42.006500244140625 L77.25643157958984,42.48463439941406 L77.5316390991211,42.72334289550781 L77.71202850341797,42.79573440551758 M81.38325500488281,37.06114959716797 L81.47039031982422,37.31808853149414 L81.60907745361328,37.88542175292969 L81.76974487304688,38.826515197753906 L81.89912414550781,40.11972427368164 L81.96829223632812,41.7293815612793 L81.95027923583984,43.59589385986328 L81.83981323242188,45.63075637817383 L81.62911987304688,47.70854949951172 L81.34015655517578,49.659759521484375 L81.02423095703125,51.322853088378906 L80.74652099609375,52.58866882324219 L80.54232788085938,53.353294372558594 L80.42788696289062,53.53672790527344 L80.37841796875,53.093467712402344 L80.39463806152344,52.02171325683594 L80.48033905029297,50.408634185791016 L80.65150451660156,48.44172668457031 L80.9248046875,46.29220199584961 L81.33323669433594,44.116943359375 L81.89728546142578,42.03489685058594 L82.6912612915039,40.148372650146484 L83.74520111083984,38.54308319091797 L85.05247497558594,37.30592346191406 L86.5599594116211,36.48562240600586 L88.17709350585938,36.10859680175781 L89.75057220458984,36.1530876159668 L91.15637969970703,36.578399658203125 L92.253662109375,37.29957580566406 L92.93013763427734,38.20874786376953 L93.13572692871094,39.20668411254883 L92.88726806640625,40.203739166259766 L92.20768737792969,41.10646438598633 L91.17623901367188,41.842384338378906 L89.87657928466797,42.33888244628906 L88.41287231445312,42.553985595703125 L86.92892456054688,42.470298767089844 L85.59354400634766,42.12282180786133 L84.5287094116211,41.597129821777344 L83.84620666503906,41.10224151611328 L83.51502227783203,40.76338577270508 M97.39686584472656,27.914854049682617 L97.41014862060547,28.30430793762207 L97.41175079345703,29.079389572143555 L97.37175750732422,30.269948959350586 L97.27009582519531,31.77234649658203 L97.11528778076172,33.49600601196289 L96.94449615478516,35.310142517089844 L96.82561492919922,37.106178283691406 L96.81318664550781,38.76743698120117 L96.95150756835938,40.19156265258789 L97.2802505493164,41.292850494384766 L97.81735229492188,42.02446746826172 L98.57479095458984,42.35558319091797 L99.56533813476562,42.30223846435547 L100.78034973144531,41.89578628540039 L102.17682647705078,41.1833610534668 L103.68879699707031,40.224708557128906 L105.1990737915039,39.09820556640625 L106.57353973388672,37.885467529296875 L107.68291473388672,36.6987190246582 L108.44164276123047,35.64004135131836 L108.78478240966797,34.796875 L108.70669555664062,34.23503875732422 L108.22238159179688,33.9949951171875 L107.38034057617188,34.10734939575195 L106.2628402709961,34.60626220703125 L105.03070831298828,35.47200393676758 L103.87696075439453,36.62900924682617 L103.02237701416016,37.949790954589844 L102.65251159667969,39.27033233642578 L102.89727783203125,40.44278335571289 L103.76010131835938,41.36876678466797 L105.25640106201172,41.974388122558594 L107.245849609375,42.249366760253906 L109.50164794921875,42.24679946899414 L111.4116439819336,42.11211013793945 L112.64631652832031,41.97000503540039 M141.4320526123047,29.630077362060547 L140.73214721679688,29.4719181060791 L139.51312255859375,29.343441009521484 L137.85479736328125,29.374210357666016 L136.04527282714844,29.669713973999023 L134.3078155517578,30.19575309753418 L132.89016723632812,30.882801055908203 L131.9923095703125,31.65363883972168 L131.79290771484375,32.46336364746094 L132.35606384277344,33.292198181152344 L133.6314239501953,34.11294937133789 L135.50009155273438,34.917972564697266 L137.75511169433594,35.72415542602539 L140.12159729003906,36.559783935546875 L142.32952880859375,37.42357635498047 L144.14151000976562,38.30596923828125 L145.388916015625,39.174346923828125 L145.98912048339844,39.994144439697266 L145.92662048339844,40.75615692138672 L145.2096405029297,41.451011657714844 L143.90191650390625,42.04833221435547 L142.08700561523438,42.50786590576172 L139.9051513671875,42.787906646728516 L137.53514099121094,42.855010986328125 L135.1793975830078,42.709678649902344 L133.01890563964844,42.37150573730469 L131.19363403320312,41.87013244628906 L129.75770568847656,41.23112106323242 L128.76490783691406,40.43434524536133 L128.22906494140625,39.49187469482422 L128.11656188964844,38.45132827758789 L128.24703979492188,37.56764221191406 L128.44105529785156,36.99185562133789 M149.79364013671875,28.75812530517578 L149.85633850097656,29.19849395751953 L149.92088317871094,30.064489364624023 L149.95228576660156,31.375276565551758 L149.91317749023438,33.005863189697266 L149.81723022460938,34.832759857177734 L149.70462036132812,36.73290252685547 L149.6161651611328,38.584381103515625 L149.5499267578125,40.271141052246094 L149.50277709960938,41.694149017333984 L149.45828247070312,42.79270935058594 L149.41954040527344,43.493831634521484 L149.39129638671875,43.84517288208008 M146.0137939453125,36.58978271484375 L146.22915649414062,36.68364715576172 L146.74884033203125,36.84278106689453 L147.6500244140625,37.03927230834961 L148.95652770996094,37.19609069824219 L150.5618896484375,37.26433563232422 L152.28976440429688,37.22789764404297 L153.70516967773438,37.142250061035156 L154.5916290283203,37.060516357421875 M158.14158630371094,35.51376724243164 L158.2554168701172,35.78741455078125 L158.46958923339844,36.31557083129883 L158.7725372314453,37.0850830078125 L159.13534545898438,37.98088836669922 L159.5543212890625,38.90248489379883 L160.08494567871094,39.73978042602539 L160.7841796875,40.40043640136719 L161.70510864257812,40.798221588134766 L162.85894775390625,40.86328887939453 L164.20689392089844,40.56068420410156 L165.63999938964844,39.93147659301758 L167.02789306640625,39.09526824951172 L168.20840454101562,38.222599029541016 L169.06640625,37.46702575683594 L169.547607421875,36.93635177612305 L169.66082763671875,36.681373596191406 L169.43722534179688,36.72452926635742 L168.89913940429688,37.10797119140625 L168.0656280517578,37.87240982055664 L166.97463989257812,39.015872955322266 L165.67648315429688,40.494285583496094 L164.2545928955078,42.23419952392578 L162.8068389892578,44.12803649902344 L161.40264892578125,46.077125549316406 L160.10906982421875,47.976158142089844 L158.9943084716797,49.703731536865234 L158.10540771484375,51.15843200683594 L157.5147705078125,52.17974090576172 L157.26719665527344,52.64060974121094 L157.33531188964844,52.512325286865234 L157.54998779296875,52.086212158203125 L157.76382446289062,51.64511489868164 M173.78282165527344,29.34549331665039 L173.82064819335938,29.562274932861328 L173.82130432128906,30.085365295410156 L173.7294158935547,30.985042572021484 L173.5030059814453,32.224334716796875 L173.17123413085938,33.70376205444336 L172.79983520507812,35.31959915161133 L172.47329711914062,36.96857452392578 L172.2785186767578,38.57047653198242 L172.2641143798828,40.02094268798828 L172.42901611328125,41.22356033325195 L172.65664672851562,42.03994369506836 L172.8463897705078,42.47163391113281 M176.09385681152344,42.06880569458008 L176.37466430664062,42.00539779663086 L176.98516845703125,41.80512619018555 L177.97317504882812,41.402549743652344 L179.26034545898438,40.77497863769531 L180.7183074951172,39.963951110839844 L182.1610870361328,39.03369140625 L183.42633056640625,38.083309173583984 L184.39865112304688,37.197120666503906 L185.0027313232422,36.43977355957031 L185.1968536376953,35.84935760498047 L184.94154357910156,35.45994567871094 L184.2003173828125,35.30270004272461 L182.99928283691406,35.43063735961914 L181.47386169433594,35.87181854248047 L179.8345947265625,36.60355758666992 L178.35037231445312,37.55232238769531 L177.25559997558594,38.6214599609375 L176.7224578857422,39.70806121826172 L176.83148193359375,40.73724365234375 L177.71261596679688,41.65737533569336 L179.4837188720703,42.432003021240234 L181.4136962890625,42.97547912597656 L182.94223022460938,43.28111267089844" fill="none" stroke="black" stroke-linecap="round" stroke-linejoin="round" stroke-miterlimit="2" stroke-width="2.0" /></svg>